<svg width="21" height="25" viewBox="0 0 21 25" fill="none" xmlns="http://www.w3.org/2000/svg">
<path fill-rule="evenodd" clip-rule="evenodd" d="M0 10.3972C0 4.64736 4.74832 0 10.4919 0C16.2517 0 21 4.64736 21 10.3972C21 13.2946 19.9587 15.9845 18.2447 18.2645C16.3538 20.7794 14.0233 22.9706 11.4 24.6905C10.7996 25.088 10.2577 25.118 9.59879 24.6905C6.96056 22.9706 4.62999 20.7794 2.75532 18.2645C1.0401 15.9845 0 13.2946 0 10.3972ZM7.03405 10.721C7.03405 12.6472 8.58735 14.1621 10.4919 14.1621C12.3977 14.1621 13.966 12.6472 13.966 10.721C13.966 8.80977 12.3977 7.22106 10.4919 7.22106C8.58735 7.22106 7.03405 8.80977 7.03405 10.721Z" fill="white"/>
</svg>
