<svg width="414" height="128" viewBox="0 0 414 128" fill="none" xmlns="http://www.w3.org/2000/svg">
<path fill-rule="evenodd" clip-rule="evenodd" d="M105.703 17.8346C108.107 16.3952 110.968 15.8849 113.725 15.6886H113.843L113.921 15.7802C114.209 16.212 114.509 16.6307 114.81 17.0626L114.98 17.3112L114.679 17.3897C112.968 17.8739 111.53 18.6721 110.184 19.8105C115.045 22.3884 119.226 26.1832 119.344 32.0585C119.37 33.1577 119.239 34.2176 118.965 35.2776C118.665 36.4553 118.181 37.5675 117.645 38.6405C116.169 41.5717 114.052 43.9009 111.282 45.6151C109.792 46.5311 108.172 47.3162 106.552 47.9836C104.958 48.6509 103.311 49.2398 101.652 49.7239C100.005 50.2081 98.2938 50.5483 96.5821 50.7184C96.7911 50.8231 97.0917 50.954 97.2615 51.1241C100.972 54.5787 101.979 58.3473 99.0908 62.7047C98.542 63.8824 97.954 65.0209 97.3791 66.1724C96.8565 67.2061 96.3338 68.2268 95.8373 69.2737C95.393 70.2158 94.9618 71.1711 94.5959 72.1525C94.3085 72.9245 94.0471 73.7751 93.9557 74.5994C93.8773 75.1752 93.8773 75.8426 94.1386 76.3791H94.1517V76.3922C94.2431 76.6539 94.3869 76.9025 94.6221 77.0595C95.5106 77.6614 97.2877 76.7978 98.0847 76.3791C99.0516 75.8687 99.9924 75.2537 100.881 74.6256C102.018 73.8274 103.128 72.9768 104.213 72.1132C108.838 67.638 113.464 63.1758 118.103 58.7006C119.109 57.7192 120.141 56.7508 121.226 55.8479C122.362 54.8927 123.538 54.0421 124.767 53.2309C125.825 52.5373 126.91 51.87 128.02 51.2549C130.581 49.8548 135.141 47.6957 138.003 49.2921C139.558 50.1558 139.911 51.6344 139.506 53.2963C138.591 57.0387 135.899 59.1062 132.842 61.0821C132.188 61.5009 131.535 61.9196 130.882 62.3122C126.988 64.6414 122.885 66.5519 118.586 68.0044C117.881 69.3783 117.018 71.5244 117.867 73.003C118.704 74.4424 120.886 74.7696 122.375 74.8481H122.389L122.402 74.8612C123.212 74.992 124.035 74.9658 124.832 74.8481C125.76 74.7041 126.674 74.4293 127.55 74.1022C128.569 73.7096 129.562 73.2386 130.516 72.7151C131.587 72.1394 132.633 71.4851 133.652 70.8177C136.213 68.9203 138.696 66.9314 140.838 64.5629C143.19 61.9981 144.994 59.1586 146.261 55.9003C149.41 48.9519 152.729 42.082 155.878 35.1336C156.871 32.9353 157.903 30.7369 158.896 28.5385C158.936 28.4339 159.288 27.688 159.236 27.5833C159.21 27.544 159.04 27.4786 159.001 27.4655C158.883 27.4263 158.766 27.4001 158.648 27.3608C158.491 27.3216 158.322 27.2823 158.165 27.23C153.918 26.013 149.671 24.783 145.425 23.5661C145.307 23.5268 145.177 23.5006 145.046 23.4614C144.928 23.4352 144.811 23.3829 144.732 23.2782C144.615 23.1081 144.68 22.8856 144.732 22.7024C144.85 22.3753 144.954 22.0351 145.072 21.7079C145.098 21.6294 145.124 21.5509 145.15 21.4593C145.203 21.3154 145.242 21.1452 145.399 21.0667C145.49 21.0275 145.582 21.0406 145.673 21.0667C145.752 21.0929 145.83 21.1191 145.921 21.1452C150.547 22.2444 155.107 23.6315 159.733 24.7568C160.02 24.8353 160.295 24.9269 160.582 25.0055C160.647 25.0316 160.83 25.084 160.896 25.0578C160.961 25.0447 161.026 24.9531 161.066 24.9139C161.196 24.7307 161.327 24.5213 161.431 24.3381C164.62 18.9861 170.944 15.44 176.628 13.3594C178.784 12.5873 180.992 11.9461 183.226 11.462C189.224 10.1665 195.261 9.53842 201.376 10.389C204.577 10.847 207.687 11.5667 210.431 13.3463C212.613 14.7726 215.057 16.9186 215.331 19.6928C215.449 20.8704 215.148 21.9958 214.586 23.0296C213.881 24.3512 212.783 25.4896 211.646 26.4449C210.64 27.2954 209.555 28.0544 208.445 28.761C206.119 30.1088 203.676 31.1818 201.114 31.9408C198.802 32.6212 196.45 33.0399 194.059 33.2231C191.785 33.4063 189.498 33.3802 187.212 33.2493C184.964 33.1185 182.717 32.8829 180.482 32.6474C179.319 32.5165 178.157 32.3988 176.994 32.2941C173.91 37.8685 170.382 43.1812 166.344 48.1144C162.686 52.5766 158.635 56.6723 154.206 60.3624C154.101 60.441 153.996 60.5195 153.905 60.598C154.01 60.5849 154.127 60.5718 154.232 60.5587C154.846 60.4933 155.46 60.441 156.074 60.3624C156.231 60.3363 156.401 60.3232 156.558 60.3232C156.701 60.3363 156.845 60.3755 156.923 60.4933C157.028 60.6634 156.963 60.8597 156.897 61.0298C156.819 61.2653 156.701 61.4878 156.597 61.7102C156.362 62.2337 156.048 62.7047 155.669 63.1235C154.833 64.0264 153.735 64.6152 152.598 65.034C151.331 65.492 149.959 65.7537 148.626 65.9499C146.353 70.242 144.066 74.5471 141.792 78.8391C146.117 78.512 150.429 78.1849 154.754 77.8577L154.963 77.8446L154.99 78.054C155.094 78.9438 155.212 79.8336 155.316 80.7365L155.342 80.9459L155.12 80.9721C149.998 81.5348 144.863 82.0843 139.741 82.6339C137.781 85.8922 135.573 89.0982 132.894 91.8069C131.744 92.9584 130.503 93.9529 129.196 94.9212C124.362 98.5328 115.555 101.215 109.622 99.4357C108.316 99.0431 107.048 98.3234 106.526 96.9887C106.264 96.3344 106.238 95.6278 106.343 94.9474C106.473 94.1361 106.8 93.351 107.192 92.6443C108.616 90.0665 111.543 88.0382 114.039 86.5988C115.777 85.5913 117.554 84.7145 119.409 83.9817C121.239 83.2489 123.12 82.6863 125.015 82.1759C128.295 81.2861 131.587 80.3701 134.906 79.6112C136.592 76.523 138.277 73.4218 139.963 70.3205C139.101 71.1449 138.212 71.93 137.271 72.6628C136.082 73.5788 134.841 74.4163 133.56 75.1883C132.058 76.0912 130.542 76.981 128.922 77.6484C127.341 78.3026 125.707 78.7214 124.022 79.0485C123.199 79.2055 122.362 79.3495 121.539 79.4411C120.821 79.5196 120.115 79.5719 119.396 79.5588C116.678 79.5065 113.974 78.813 112.353 76.4576C111.792 75.6332 111.426 74.7041 111.177 73.7358C110.981 73.0292 110.864 72.3095 110.746 71.5898C107.427 75.0967 103.756 78.1456 99.3652 80.2131L99.3522 80.2262H99.3391C96.9741 81.0637 94.2562 81.6918 91.7736 80.9982C90.2709 80.5795 89.0427 79.729 88.0104 78.5513C87.6184 78.0933 87.2917 77.5829 87.0435 77.0203C86.3117 75.3715 86.3248 73.5003 86.7037 71.773C87.1219 69.8494 87.9973 67.9782 89.0949 66.3556C89.2779 66.0939 89.4739 65.8191 89.6699 65.5574C90.3232 64.5629 90.9634 63.5684 91.5645 62.5477C92.1264 61.6056 92.6621 60.6372 93.1064 59.6427C93.7728 58.1248 94.3738 56.2405 93.9034 54.5917C93.4461 52.9561 92.048 51.9485 90.5714 51.2942C87.4877 50.3651 84.404 49.4491 81.3073 48.5201C78.2235 52.1709 75.1268 55.8349 72.03 59.4857C70.3575 61.4747 68.6458 63.3983 66.8034 65.2433C64.8957 67.1669 62.8704 68.9596 60.7536 70.6738C59.2117 71.93 57.6176 73.1077 55.932 74.1807C54.6776 74.9789 53.384 75.7117 52.0643 76.3791C50.5878 77.1249 49.0721 77.8054 47.5433 78.4466C46.8246 78.7345 46.106 79.0223 45.3742 79.284C44.7601 79.4934 44.1329 79.7028 43.4927 79.886C42.8655 80.0692 42.2383 80.2393 41.6111 80.4225C40.8793 80.6188 40.1476 80.8281 39.429 81.0375L39.233 81.1029L39.1546 80.9066C38.8932 80.1739 38.6188 79.428 38.3575 78.6952L38.2922 78.5251L38.449 78.4335C39.6511 77.7531 40.8663 77.0988 42.0815 76.4576C44.0807 75.4108 46.0145 74.2592 47.87 72.9638C49.5033 71.8253 51.0321 70.5953 52.4955 69.2606C53.2664 68.567 53.9982 67.8473 54.7168 67.1145C56.2848 65.505 57.8136 63.8955 59.2771 62.1944C59.8912 61.4747 60.5053 60.7419 61.1064 59.996C61.9426 59.0015 62.7789 57.994 63.6151 56.9995C64.7127 55.6909 65.8103 54.3955 66.8949 53.1C67.5743 52.2887 68.2407 51.4905 68.9202 50.6923C69.3514 50.1819 69.7826 49.6716 70.2268 49.1613C73.8071 45.0786 77.3481 40.9436 80.9414 36.874C84.8875 32.3857 89.2125 28.1329 93.9818 24.5213C95.9418 23.0296 97.9802 21.6425 100.11 20.4125C97.5882 19.9152 95.0271 19.5488 92.4661 19.3133C89.9965 19.0777 87.5139 18.9731 85.0312 18.9731C82.7315 18.9731 80.4318 19.0516 78.119 19.1955C75.8977 19.3264 73.6895 19.4965 71.4681 19.6535C70.7234 19.7189 69.9786 19.7713 69.2338 19.8236C65.9149 20.1769 62.609 20.6218 59.3293 21.1976C56.6507 21.6687 53.9851 22.2313 51.3587 22.9118C47.3734 23.9586 43.5057 25.2933 39.7818 27.0991C36.7895 28.5516 33.8365 30.1481 31.0402 31.9669C28.9365 33.3409 26.9112 34.8457 25.0558 36.5469C20.6262 40.6295 17.5686 45.0655 16.7324 51.1503C16.4318 53.3355 16.4449 55.7302 17.4772 57.7453C18.7054 60.1531 21.0705 61.3831 23.5792 62.0636H23.5923H23.6054C25.0166 62.5608 26.5061 62.7833 27.9957 62.8356C29.4722 62.8749 30.9749 62.7309 32.4384 62.5085C34.1109 62.2337 35.7573 61.8411 37.3775 61.3569C39.1415 60.8335 40.8663 60.2185 42.5519 59.5119C44.3159 58.7922 46.0537 57.9809 47.7393 57.0911C49.4379 56.2013 51.1105 55.2329 52.7176 54.1861C54.2726 53.1916 55.7752 52.1055 57.2125 50.9409C58.5323 49.8679 59.7997 48.7164 60.9757 47.4863C61.9949 46.3871 62.9618 45.2094 63.7458 43.9402C63.9549 43.5999 64.1639 43.2466 64.3469 42.8933C64.5037 42.5793 64.6735 42.2521 64.8303 41.925C65.4314 40.6557 66.3591 38.4312 65.6797 37.031C65.2354 36.1412 64.2293 35.8141 63.3146 35.6832C62.5698 35.5785 61.825 35.5524 61.0802 35.5393C60.832 35.5262 60.5706 35.5262 60.3224 35.5131C60.244 35.5131 60.1525 35.5 60.0741 35.4869C59.9565 35.4608 59.8389 35.3822 59.8389 35.2252C59.8389 35.0289 59.852 34.8065 59.8651 34.5971C59.8781 34.27 59.9042 33.9428 59.9304 33.6157C59.9434 33.3933 59.9696 33.1577 59.9826 32.9353L60.0088 32.7259L60.2178 32.739C61.1717 32.8175 62.1256 32.8698 63.0664 32.9745C65.4053 33.2231 68.0839 34.0214 69.077 36.3898C70.1354 38.9022 68.8679 42.0689 67.6004 44.2542C63.8634 50.7184 58.4539 55.3769 52.0905 59.1324C49.1243 60.8859 46.0145 62.3122 42.774 63.4506H42.7609C39.0239 64.6283 35.1431 65.5705 31.2232 65.9761C28.3093 66.264 25.4216 66.2509 22.5078 65.8714H22.4947C20.1689 65.4396 17.8561 64.6937 15.8308 63.4506C7.31137 58.2033 9.32362 49.1874 14.2758 42.1474C15.6348 40.1977 17.3204 38.4312 19.0713 36.8217C21.0051 35.0551 23.0958 33.4194 25.2387 31.9146C27.3032 30.4621 29.4592 29.1012 31.6544 27.845C33.6274 26.7197 35.6527 25.6597 37.7172 24.7045C40.9839 23.2127 44.3551 21.9565 47.7785 20.8704C50.3265 20.0591 52.9267 19.4049 55.54 18.8291C58.3232 18.2272 61.1325 17.7168 63.9549 17.2981C66.8687 16.8532 69.8087 16.4868 72.7487 16.1989C78.4326 15.6493 84.1558 15.4661 89.8659 15.754C95.197 16.0288 100.502 16.6962 105.703 17.8346ZM193.405 60.1007C192.242 62.0374 191.079 63.974 189.93 65.9107C188.936 67.6118 188.152 69.3653 187.878 71.3281C187.8 71.8908 187.734 72.4796 187.747 73.0554C187.76 73.5395 187.839 74.0629 188.074 74.4948C188.401 75.1098 188.95 75.4631 189.59 75.6594C190.152 75.8164 190.714 75.908 191.301 75.8818C192.647 75.8295 193.889 75.2014 195.065 74.5994C195.966 74.1284 196.842 73.6049 197.704 73.0554C198.384 72.6235 199.037 72.1655 199.664 71.6552C200.278 71.158 200.866 70.6084 201.441 70.0719C202.121 69.4045 202.813 68.7502 203.506 68.096C204.146 66.565 204.956 65.1256 205.884 63.7647C206.772 62.4692 207.765 61.2653 208.811 60.0876L208.824 60.0746C212.953 55.9788 217.604 52.0008 223.21 50.1165C223.563 49.9987 223.929 49.8941 224.295 49.8025C226.032 49.3445 227.953 49.0828 229.639 49.9202C229.913 50.0511 230.161 50.2081 230.384 50.4175C231.259 51.2157 231.638 52.328 231.664 53.4926C231.69 54.631 231.455 55.704 230.945 56.7116C230.318 57.9416 229.338 58.9492 228.319 59.839C227.248 60.7812 226.085 61.6186 224.909 62.4038C223.602 63.2805 222.256 64.0918 220.897 64.8769C218.963 65.9761 216.99 67.0229 215.017 68.0436C214.155 68.4885 213.306 68.9203 212.456 69.3522C211.79 69.6924 211.137 70.0195 210.496 70.3597C210.274 72.0739 210.483 73.7489 211.725 75.0443C212.025 75.3584 212.365 75.6332 212.731 75.8818C213.083 75.9996 213.423 76.1043 213.776 76.1828C215.056 76.4707 216.35 76.4183 217.618 76.1304C219.12 75.7902 220.571 75.136 221.877 74.3377C225.967 71.9038 229.652 68.868 233.023 65.505C233.376 65.1517 233.742 64.7853 234.068 64.3928C234.29 64.1441 234.486 63.8693 234.643 63.5684C234.813 63.2674 234.957 62.9403 235.074 62.6131C235.257 62.129 235.44 61.6448 235.623 61.1607C236.342 59.2763 236.904 57.3528 237.766 55.5339C239.269 52.3934 240.785 49.2529 242.366 46.1516C244.404 42.1344 246.521 38.1564 248.807 34.2831C250.062 32.124 251.382 30.0041 252.754 27.9235C254.06 25.9738 255.419 24.0633 256.896 22.2313C258.176 20.6349 259.574 19.0646 261.09 17.6776C262.318 16.5392 263.716 15.4661 265.232 14.7334C265.951 14.3931 266.709 14.1314 267.493 14.0267C268.669 13.8828 269.766 14.0922 270.825 14.6287C272.771 15.6363 274.143 17.5729 274.705 19.6666C275.019 20.8574 275.071 22.0874 274.914 23.3174C274.248 28.8526 269.766 34.4924 266.055 38.4181L266.042 38.4312L266.029 38.4443C264.592 39.6743 263.141 40.9043 261.704 42.1344L261.56 42.2652L261.417 42.1344C260.816 41.5848 260.215 41.0352 259.613 40.4856L259.457 40.3547L259.587 40.1977C260.842 38.5882 262.096 36.9656 263.35 35.3561C264.2 34.27 265.062 33.1708 265.807 32.0062C266.905 30.3051 267.963 28.5647 268.904 26.772C269.453 25.699 270.001 24.5475 270.38 23.3959C270.576 22.8202 270.681 22.1659 270.707 21.5509C270.733 20.805 270.642 19.7974 270.08 19.2348C269.74 18.9076 269.309 18.7899 268.852 18.8029C268.642 18.8029 268.433 18.8422 268.237 18.8945C267.401 19.1693 266.709 19.9152 266.173 20.5695C265.807 21.0144 265.467 21.4855 265.101 21.9304C261.534 26.3271 258.568 31.208 255.733 36.102C252.283 42.0297 248.86 47.9574 245.423 53.8982C245.998 53.3486 246.573 52.799 247.148 52.2494L247.409 51.9877L247.514 52.3541C247.736 53.2309 247.971 54.0945 248.193 54.9712L248.219 55.089L248.154 55.1675C245.841 57.9024 243.542 60.6372 241.242 63.3721C240.027 66.421 238.811 70.4252 239.439 73.7227C239.713 74.5733 240.183 75.45 241.02 75.8295C241.49 76.0388 242.013 76.065 242.509 75.9865C243.176 75.8818 243.842 75.607 244.443 75.293C247.775 73.1208 250.794 70.4906 253.498 67.5595C254.962 65.806 256.425 64.0395 257.889 62.286L258.032 62.1028L258.202 62.2598C258.999 63.0188 259.809 63.7647 260.607 64.5105L260.763 64.6545L260.62 64.8115C258.934 66.7351 257.248 68.6717 255.563 70.5953C254.139 72.2179 252.754 73.9059 251.225 75.45C249.814 76.8763 248.298 78.1325 246.56 79.1663C244.378 80.4617 241.529 81.6656 238.929 81.4432C238.25 81.3908 237.583 81.2338 236.956 80.959C233.833 79.5719 233.036 77.2558 233.036 74.0106C233.036 73.8797 233.036 73.762 233.036 73.6311C233.049 72.6235 233.101 71.629 233.167 70.6345C231.546 72.5319 229.704 74.2069 227.666 75.6594C225.614 77.1249 223.419 78.3419 221.132 79.3887C219.8 79.9776 218.428 80.4356 217.003 80.7365C215.801 80.9852 214.586 81.1029 213.358 81.0637C211.176 80.9982 209.137 80.4617 207.099 79.6766H207.086C204.342 78.3419 202.852 76.3267 202.617 73.3302C199.834 76.209 196.515 78.3681 192.804 79.8991H192.791C192.504 79.9907 192.216 80.0823 191.929 80.1608C190.295 80.6449 188.466 81.0113 186.767 80.658C184.912 80.2655 183.605 79.1139 182.638 77.5175L182.625 77.5044V77.4913C181.815 75.607 181.711 73.6965 181.802 71.7076C180.953 72.3487 180.103 72.9899 179.254 73.6311C178.313 74.3377 177.386 75.0444 176.432 75.7379C175.36 76.5361 174.263 77.3081 173.139 78.0278C171.702 78.9438 170.16 79.8075 168.566 80.4356C167.207 80.9721 165.665 81.3908 164.188 81.26C163.47 81.1945 162.764 80.959 162.098 80.6842C160.334 79.9645 158.923 78.813 158.295 76.981C157.524 74.7172 158.322 72.2964 159.197 70.2027C160.595 66.8528 162.816 64.1311 165.129 61.4093H165.142V61.3962C167.729 58.6613 170.656 56.3321 174.001 54.5787C175.53 53.7935 177.098 53.0477 178.771 52.6289C180.417 52.2233 182.037 52.1709 183.71 52.2494C186.127 52.3803 188.479 52.9168 190.596 54.0945C190.988 53.5449 191.367 52.9953 191.759 52.4457L191.863 52.2887L192.033 52.3672C193.601 53.1393 195.182 53.9113 196.763 54.6833L196.999 54.8011L196.842 55.0105C196.332 55.7171 195.823 56.4237 195.313 57.1303C195.888 57.9024 196.424 58.6744 196.907 59.4988C197.181 59.9699 197.443 60.454 197.704 60.9382L197.809 61.1214L197.626 61.2261C196.842 61.6579 196.071 62.0897 195.3 62.5215L195.13 62.6131L195.012 62.443C194.477 61.671 193.941 60.8859 193.405 60.1007ZM153.905 56.5938C153.957 56.5415 154.01 56.4891 154.062 56.4368C155.813 54.8142 157.511 53.1393 159.158 51.3989C161.013 49.423 162.777 47.3686 164.463 45.2487C167.52 41.166 170.356 36.8347 172.25 32.0716C172.29 31.9669 172.564 31.3388 172.577 31.1818C172.512 31.1556 172.342 31.1295 172.29 31.1164C172.015 31.0771 171.728 31.0248 171.453 30.9724C169.637 30.606 167.834 30.2266 166.018 29.8602C165.717 29.7947 165.417 29.7162 165.103 29.6508C165.051 29.6377 164.868 29.5854 164.816 29.6116C164.763 29.6377 164.698 29.7817 164.672 29.834C164.567 30.0826 164.476 30.3443 164.371 30.606C160.909 39.1901 157.446 47.7873 153.983 56.3845C153.957 56.4499 153.931 56.5153 153.905 56.5938ZM173.805 18.3711C172.629 18.5412 170.983 20.0853 170.186 20.9097C169.755 21.3546 169.337 21.8126 168.932 22.2968C168.84 22.4145 168.749 22.5192 168.657 22.6239C168.213 23.1866 167.769 23.7623 167.351 24.3381C167.102 24.6783 166.854 25.0316 166.632 25.3849C166.449 25.6728 166.266 25.9738 166.109 26.2878C166.096 26.3271 166.031 26.4841 166.044 26.5234C166.07 26.5757 166.344 26.6411 166.397 26.6542C166.553 26.6804 166.723 26.7066 166.88 26.7327C167.102 26.772 167.311 26.8113 167.533 26.8505C169.572 27.2431 171.61 27.6487 173.649 28.0936C173.714 28.1067 173.949 28.1591 174.028 28.1198C174.067 28.1067 174.132 27.989 174.158 27.9366C174.263 27.7403 174.354 27.5179 174.459 27.2954C174.576 27.0599 174.668 26.7982 174.759 26.5365C174.955 25.9476 175.099 25.3457 175.23 24.7438C175.334 24.3119 175.386 23.8539 175.426 23.409C175.478 22.8202 175.491 22.2313 175.478 21.6425C175.465 21.0275 175.426 20.3863 175.282 19.7844C175.099 18.9861 174.681 18.3711 173.805 18.3711ZM179.045 15.5839C178.941 15.6493 178.784 15.7409 178.771 15.8849C178.731 16.0942 178.993 16.513 179.084 16.6962C179.489 17.4159 179.816 18.1748 180.064 18.96C180.365 19.9152 180.548 20.9228 180.6 21.9173C180.652 22.9772 180.548 24.0502 180.365 25.0971C180.195 26.0523 179.96 26.9945 179.698 27.9235C179.62 28.1852 179.529 28.46 179.476 28.7348C179.45 28.8264 179.424 28.9834 179.476 29.075C179.529 29.1797 179.738 29.2452 179.829 29.2713C180.038 29.3237 180.247 29.3498 180.456 29.376C180.809 29.4284 181.162 29.4545 181.515 29.4938C182.259 29.5461 183.004 29.5854 183.749 29.6246C184.677 29.6639 185.591 29.7031 186.506 29.7293C187.29 29.7424 188.087 29.7555 188.871 29.7686C191.001 29.7686 193.118 29.7031 195.235 29.4153C197.038 29.1666 198.841 28.7872 200.592 28.303C201.912 27.9497 203.231 27.531 204.446 26.8898C205.466 26.3664 206.433 25.6859 207.295 24.9269C207.961 24.325 208.575 23.6577 209.02 22.8856C209.451 22.1397 209.66 21.3939 209.725 20.5302C209.791 19.575 209.686 18.3973 209.255 17.5336C208.824 16.6569 208.053 16.055 207.243 15.5447C206.315 14.9558 205.387 14.5109 204.342 14.1707C203.022 13.7519 201.611 13.5164 200.239 13.3594C198.619 13.1762 196.972 13.1238 195.339 13.1238C194.451 13.1238 193.575 13.1369 192.687 13.1893C191.707 13.2416 190.74 13.3332 189.76 13.451C188.767 13.5687 187.774 13.7258 186.78 13.8959C185.604 14.1053 184.428 14.3277 183.266 14.5502C182.39 14.7072 181.502 14.8773 180.626 15.0736C180.299 15.1521 179.986 15.2306 179.672 15.3353C179.463 15.4007 179.241 15.4792 179.045 15.5839ZM120.977 63.0057C121.017 62.9926 121.043 62.9795 121.069 62.9664C121.33 62.8618 121.605 62.7309 121.866 62.6131C123.395 61.9196 124.91 61.2392 126.439 60.5456C127.876 59.7474 129.327 58.9623 130.699 58.0463C131.326 57.6276 131.927 57.1696 132.515 56.6985C132.816 56.4237 133.09 56.1358 133.364 55.8349C133.665 55.4946 133.979 55.1021 134.188 54.6833C134.305 54.4609 134.462 54.0945 134.384 53.8328C134.122 53.0477 133.417 52.9561 132.698 52.9822C131.718 53.0215 130.803 53.401 129.98 53.9113C129.405 54.2515 128.843 54.6572 128.308 55.0497C127.759 55.4554 127.223 55.861 126.7 56.2798C124.701 57.8893 122.911 59.7867 121.578 61.9981C121.409 62.286 121.226 62.5739 121.056 62.8749C121.043 62.901 121.003 62.9534 120.977 63.0057ZM133.051 83.6153C129.797 84.6098 126.557 85.6043 123.303 86.5988C121.761 87.0176 120.259 87.541 118.795 88.1822C117.449 88.7841 116.156 89.4646 114.888 90.2235C114.222 90.5899 113.556 91.0348 113.02 91.5713C112.314 92.2648 111.609 93.2855 111.713 94.3193C111.792 95.0782 112.288 95.6409 112.902 96.0466C113.203 96.2036 113.516 96.3083 113.843 96.3737C114.797 96.5831 115.855 96.4915 116.809 96.3475C117.201 96.2952 117.58 96.2036 117.972 96.112C121.631 95.3007 124.675 93.5603 127.367 90.9694C129.601 88.8103 131.404 86.2324 133.051 83.6153ZM84.2995 45.6413C84.9136 45.8899 86.0112 46.0077 86.56 46.0469C87.4093 46.1254 88.2587 46.1516 89.1211 46.1647C90.3101 46.1909 91.5122 46.1778 92.7144 46.1516C94.8834 46.1123 96.9871 45.7983 99.0516 45.0786C101.443 44.2542 103.586 42.9457 105.533 41.3231C108.381 38.5359 110.158 35.7748 110.472 31.7052C110.72 28.604 109.962 24.9139 107.636 22.6893C107.48 22.5454 107.297 22.4014 107.075 22.3753C106.709 22.336 106.264 22.6501 105.99 22.8464C105.703 23.0688 105.415 23.3043 105.141 23.5268C104.775 23.8409 104.409 24.1549 104.03 24.469C101.221 26.7982 98.6204 29.376 96.1378 32.0455C93.616 34.7672 91.2117 37.5806 88.8205 40.394C87.3179 42.1474 85.8283 43.9009 84.2995 45.6413ZM224.334 54.6964C223.942 54.5001 223.484 54.4216 223.053 54.4085C221.734 54.3693 220.283 55.4554 219.329 56.2667C218.676 56.8163 218.049 57.4182 217.448 58.0201C216.742 58.7268 216.063 59.4595 215.409 60.2185C214.704 61.0429 214.011 61.9065 213.397 62.8094C213.005 63.3721 212.6 64.0133 212.299 64.6545C213.449 64.1441 214.599 63.6338 215.749 63.1366C218.441 61.9458 222.909 59.9306 224.36 57.2612C224.582 56.8686 224.726 56.4499 224.791 56.0181C224.869 55.4423 224.791 55.0628 224.334 54.6964ZM188.858 56.5676C188.793 56.5415 188.714 56.5153 188.649 56.4891C188.401 56.3975 188.139 56.319 187.891 56.2536C187.094 56.0442 186.284 55.9265 185.474 55.8872C183.762 55.8479 182.037 55.9919 180.404 56.5415C179.698 56.777 179.019 57.1042 178.379 57.4575C177.66 57.85 176.967 58.2949 176.301 58.766C175.112 59.6166 173.949 60.598 172.917 61.6448C172.198 62.3645 171.519 63.1235 170.852 63.8955C168.592 66.5388 165.064 70.5299 165.534 74.2592C165.587 74.6256 165.678 74.9789 165.796 75.3191C165.939 75.6332 166.161 75.8687 166.462 76.0388C167.455 76.6146 168.827 76.2351 169.82 75.8295C170.552 75.5416 171.257 75.1621 171.924 74.7565C172.669 74.3116 173.387 73.8143 174.093 73.304C175.177 72.5189 176.236 71.6814 177.268 70.8308C177.712 70.4644 178.143 70.085 178.588 69.7186C178.927 69.4307 179.267 69.1428 179.62 68.868C180.482 67.9389 181.319 66.9837 182.116 66.0154C184.076 63.6469 185.918 61.1607 187.591 58.5959C188.022 57.9285 188.453 57.2481 188.858 56.5676Z" fill="#B79F84"/>
<line x1="10" y1="117" x2="416" y2="117" stroke="#B79F84" stroke-width="2"/>
</svg>
