<svg width="265" height="90" viewBox="0 0 265 90" fill="none" xmlns="http://www.w3.org/2000/svg">
<path fill-rule="evenodd" clip-rule="evenodd" d="M95.7025 7.83461C98.1068 6.39521 100.968 5.88488 103.725 5.68859H103.843L103.921 5.78019C104.209 6.21201 104.509 6.63075 104.81 7.06257L104.98 7.31119L104.679 7.38971C102.968 7.87387 101.53 8.67208 100.184 9.81052C105.045 12.3884 109.226 16.1832 109.344 22.0585C109.37 23.1577 109.239 24.2176 108.965 25.2776C108.665 26.4553 108.181 27.5675 107.645 28.6405C106.169 31.5717 104.052 33.9009 101.282 35.6151C99.7923 36.5311 98.1721 37.3162 96.5518 37.9836C94.9577 38.6509 93.3113 39.2398 91.6519 39.7239C90.0055 40.2081 88.2938 40.5483 86.5821 40.7184C86.7911 40.8231 87.0917 40.954 87.2615 41.1241C90.9724 44.5787 91.9785 48.3473 89.0908 52.7047C88.542 53.8824 87.954 55.0209 87.3791 56.1724C86.8565 57.2061 86.3338 58.2268 85.8373 59.2737C85.393 60.2158 84.9618 61.1711 84.5959 62.1525C84.3085 62.9245 84.0471 63.7751 83.9557 64.5994C83.8773 65.1752 83.8773 65.8426 84.1386 66.3791H84.1517V66.3922C84.2431 66.6539 84.3869 66.9025 84.6221 67.0595C85.5106 67.6614 87.2876 66.7978 88.0847 66.3791C89.0516 65.8687 89.9924 65.2537 90.881 64.6256C92.0177 63.8274 93.1284 62.9768 94.2129 62.1132C98.8385 57.638 103.464 53.1758 108.103 48.7006C109.109 47.7192 110.141 46.7508 111.226 45.8479C112.362 44.8927 113.538 44.0422 114.767 43.2309C115.825 42.5373 116.91 41.87 118.02 41.2549C120.581 39.8548 125.141 37.6957 128.003 39.2921C129.558 40.1558 129.911 41.6344 129.506 43.2963C128.591 47.0387 125.899 49.1062 122.842 51.0821C122.188 51.5009 121.535 51.9196 120.882 52.3122C116.988 54.6414 112.885 56.5519 108.586 58.0044C107.881 59.3783 107.018 61.5244 107.867 63.003C108.704 64.4424 110.886 64.7696 112.375 64.8481H112.389L112.402 64.8612C113.212 64.992 114.035 64.9658 114.832 64.8481C115.76 64.7041 116.674 64.4293 117.55 64.1022C118.569 63.7096 119.562 63.2386 120.516 62.7151C121.587 62.1394 122.633 61.4851 123.652 60.8177C126.213 58.9203 128.696 56.9314 130.838 54.5629C133.19 51.9981 134.994 49.1586 136.261 45.9003C139.41 38.9519 142.729 32.082 145.878 25.1336C146.871 22.9353 147.903 20.7369 148.896 18.5385C148.936 18.4339 149.288 17.688 149.236 17.5833C149.21 17.544 149.04 17.4786 149.001 17.4655C148.883 17.4263 148.766 17.4001 148.648 17.3608C148.491 17.3216 148.322 17.2823 148.165 17.23C143.918 16.013 139.671 14.783 135.425 13.5661C135.307 13.5268 135.177 13.5006 135.046 13.4614C134.928 13.4352 134.811 13.3829 134.732 13.2782C134.615 13.1081 134.68 12.8856 134.732 12.7024C134.85 12.3753 134.954 12.0351 135.072 11.7079C135.098 11.6294 135.124 11.5509 135.15 11.4593C135.203 11.3154 135.242 11.1452 135.399 11.0667C135.49 11.0275 135.582 11.0406 135.673 11.0667C135.752 11.0929 135.83 11.1191 135.921 11.1452C140.547 12.2444 145.107 13.6315 149.733 14.7568C150.02 14.8353 150.295 14.9269 150.582 15.0055C150.647 15.0316 150.83 15.084 150.896 15.0578C150.961 15.0447 151.026 14.9531 151.066 14.9139C151.196 14.7307 151.327 14.5213 151.431 14.3381C154.62 8.98614 160.944 5.43997 166.628 3.35938C168.784 2.58733 170.992 1.94615 173.226 1.46198C179.224 0.166521 185.261 -0.461583 191.376 0.388974C194.577 0.846966 197.687 1.56667 200.431 3.34629C202.613 4.77261 205.057 6.91863 205.331 9.69275C205.449 10.8704 205.148 11.9958 204.586 13.0296C203.881 14.3512 202.783 15.4896 201.646 16.4449C200.64 17.2954 199.555 18.0544 198.445 18.761C196.119 20.1088 193.676 21.1818 191.114 21.9408C188.802 22.6212 186.45 23.0399 184.059 23.2231C181.785 23.4063 179.498 23.3802 177.212 23.2493C174.964 23.1185 172.717 22.8829 170.482 22.6474C169.319 22.5165 168.157 22.3988 166.994 22.2941C163.91 27.8685 160.382 33.1812 156.344 38.1144C152.686 42.5766 148.635 46.6723 144.206 50.3624C144.101 50.441 143.996 50.5195 143.905 50.598C144.01 50.5849 144.127 50.5718 144.232 50.5587C144.846 50.4933 145.46 50.441 146.074 50.3624C146.231 50.3363 146.401 50.3232 146.558 50.3232C146.701 50.3363 146.845 50.3755 146.923 50.4933C147.028 50.6634 146.963 50.8597 146.897 51.0298C146.819 51.2653 146.701 51.4878 146.597 51.7102C146.362 52.2337 146.048 52.7047 145.669 53.1235C144.833 54.0264 143.735 54.6152 142.598 55.034C141.331 55.492 139.959 55.7537 138.626 55.9499C136.353 60.242 134.066 64.5471 131.792 68.8391C136.117 68.512 140.429 68.1849 144.754 67.8577L144.963 67.8446L144.99 68.054C145.094 68.9438 145.212 69.8336 145.316 70.7365L145.342 70.9459L145.12 70.9721C139.998 71.5348 134.863 72.0843 129.741 72.6339C127.781 75.8922 125.573 79.0982 122.894 81.8069C121.744 82.9584 120.503 83.9529 119.196 84.9212C114.362 88.5328 105.555 91.2153 99.6225 89.4357C98.3158 89.0431 97.0484 88.3234 96.5257 86.9887C96.2644 86.3344 96.2382 85.6278 96.3428 84.9474C96.4734 84.1361 96.8001 83.3509 97.1921 82.6443C98.6164 80.0665 101.543 78.0382 104.039 76.5988C105.777 75.5913 107.554 74.7145 109.409 73.9817C111.239 73.2489 113.12 72.6863 115.015 72.1759C118.295 71.2861 121.587 70.3701 124.906 69.6112C126.592 66.523 128.277 63.4218 129.963 60.3205C129.101 61.1449 128.212 61.93 127.271 62.6628C126.082 63.5788 124.841 64.4162 123.56 65.1883C122.058 66.0912 120.542 66.981 118.922 67.6484C117.341 68.3026 115.707 68.7214 114.022 69.0485C113.199 69.2055 112.362 69.3495 111.539 69.4411C110.821 69.5196 110.115 69.5719 109.396 69.5588C106.678 69.5065 103.974 68.813 102.353 66.4576C101.792 65.6332 101.426 64.7041 101.177 63.7358C100.981 63.0292 100.864 62.3095 100.746 61.5898C97.4273 65.0967 93.7556 68.1456 89.3652 70.2131L89.3522 70.2262H89.3391C86.9741 71.0637 84.2562 71.6918 81.7736 70.9982C80.2709 70.5795 79.0427 69.729 78.0104 68.5513C77.6184 68.0933 77.2917 67.5829 77.0435 67.0203C76.3117 65.3715 76.3248 63.5003 76.7037 61.773C77.1219 59.8494 77.9973 57.9782 79.0949 56.3556C79.2779 56.0939 79.4739 55.8191 79.6699 55.5574C80.3232 54.5629 80.9634 53.5684 81.5645 52.5477C82.1264 51.6056 82.6621 50.6372 83.1064 49.6427C83.7727 48.1248 84.3738 46.2405 83.9034 44.5917C83.4461 42.9561 82.048 41.9485 80.5714 41.2942C77.4877 40.3651 74.404 39.4491 71.3073 38.5201C68.2236 42.1709 65.1268 45.8349 62.03 49.4857C60.3575 51.4747 58.6458 53.3983 56.8034 55.2433C54.8957 57.1669 52.8704 58.9596 50.7536 60.6738C49.2117 61.93 47.6176 63.1077 45.932 64.1807C44.6776 64.9789 43.384 65.7117 42.0643 66.3791C40.5878 67.1249 39.0721 67.8054 37.5433 68.4466C36.8246 68.7345 36.106 69.0223 35.3742 69.284C34.7601 69.4934 34.1329 69.7028 33.4927 69.886C32.8655 70.0692 32.2383 70.2393 31.6111 70.4225C30.8793 70.6188 30.1476 70.8281 29.429 71.0375L29.233 71.1029L29.1546 70.9066C28.8932 70.1739 28.6188 69.428 28.3575 68.6952L28.2922 68.5251L28.449 68.4335C29.6511 67.753 30.8663 67.0988 32.0815 66.4576C34.0807 65.4107 36.0145 64.2592 37.87 62.9638C39.5033 61.8253 41.0321 60.5953 42.4955 59.2606C43.2664 58.567 43.9982 57.8473 44.7168 57.1145C46.2848 55.505 47.8136 53.8955 49.2771 52.1944C49.8912 51.4747 50.5053 50.7419 51.1064 49.996C51.9426 49.0015 52.7789 47.994 53.6151 46.9995C54.7127 45.6909 55.8103 44.3955 56.8949 43.1C57.5743 42.2887 58.2407 41.4905 58.9202 40.6923C59.3514 40.1819 59.7826 39.6716 60.2268 39.1613C63.8071 35.0786 67.3481 30.9436 70.9414 26.874C74.8875 22.3857 79.2125 18.1329 83.9818 14.5213C85.9418 13.0296 87.9802 11.6425 90.11 10.4125C87.5882 9.91521 85.0271 9.54881 82.4661 9.31327C79.9965 9.07774 77.5139 8.97305 75.0312 8.97305C72.7315 8.97305 70.4318 9.05156 68.119 9.19551C65.8977 9.32636 63.6895 9.49647 61.4681 9.6535C60.7233 9.71892 59.9786 9.77127 59.2338 9.82361C55.9149 10.1769 52.609 10.6218 49.3293 11.1976C46.6507 11.6687 43.9851 12.2313 41.3587 12.9118C37.3734 13.9586 33.5057 15.2933 29.7818 17.0991C26.7895 18.5516 23.8365 20.1481 21.0402 21.9669C18.9365 23.3409 16.9112 24.8457 15.0558 26.5469C10.6262 30.6295 7.56862 35.0655 6.73236 41.1503C6.43183 43.3355 6.44489 45.7302 7.47715 47.7453C8.70541 50.1531 11.0705 51.3831 13.5792 52.0636H13.5923H13.6054C15.0166 52.5608 16.5061 52.7833 17.9957 52.8356C19.4722 52.8749 20.9749 52.7309 22.4384 52.5085C24.1109 52.2337 25.7573 51.8411 27.3775 51.3569C29.1415 50.8335 30.8663 50.2185 32.5519 49.5119C34.3159 48.7922 36.0537 47.9809 37.7393 47.0911C39.4379 46.2013 41.1105 45.2329 42.7176 44.1861C44.2726 43.1916 45.7752 42.1055 47.2125 40.9409C48.5323 39.8679 49.7997 38.7164 50.9757 37.4863C51.9949 36.3871 52.9618 35.2094 53.7458 33.9402C53.9549 33.5999 54.1639 33.2466 54.3469 32.8933C54.5037 32.5793 54.6735 32.2521 54.8303 31.925C55.4314 30.6557 56.3591 28.4312 55.6797 27.031C55.2354 26.1412 54.2293 25.8141 53.3146 25.6832C52.5698 25.5785 51.825 25.5524 51.0802 25.5393C50.832 25.5262 50.5706 25.5262 50.3224 25.5131C50.244 25.5131 50.1525 25.5 50.0741 25.4869C49.9565 25.4608 49.8389 25.3822 49.8389 25.2252C49.8389 25.0289 49.852 24.8065 49.8651 24.5971C49.8781 24.27 49.9042 23.9428 49.9304 23.6157C49.9434 23.3933 49.9696 23.1577 49.9826 22.9353L50.0088 22.7259L50.2178 22.739C51.1717 22.8175 52.1256 22.8698 53.0664 22.9745C55.4053 23.2231 58.0839 24.0214 59.077 26.3898C60.1354 28.9022 58.8679 32.0689 57.6004 34.2542C53.8634 40.7184 48.4539 45.3769 42.0905 49.1324C39.1243 50.8859 36.0145 52.3122 32.774 53.4506H32.7609C29.0239 54.6283 25.1431 55.5705 21.2232 55.9761C18.3093 56.264 15.4216 56.2509 12.5078 55.8714H12.4947C10.1689 55.4396 7.85608 54.6937 5.83077 53.4506C-2.68863 48.2033 -0.676376 39.1874 4.27585 32.1474C5.63477 30.1977 7.32035 28.4312 9.07127 26.8217C11.0051 25.0551 13.0958 23.4194 15.2387 21.9146C17.3032 20.4621 19.4592 19.1012 21.6544 17.845C23.6274 16.7197 25.6527 15.6597 27.7172 14.7045C30.9839 13.2127 34.3551 11.9565 37.7785 10.8704C40.3265 10.0591 42.9267 9.40487 45.54 8.82911C48.3232 8.22718 51.1325 7.71685 53.9549 7.29811C56.8687 6.8532 59.8087 6.48681 62.7487 6.19893C68.4326 5.64934 74.1558 5.46614 79.8659 5.75402C85.197 6.02882 90.502 6.69618 95.7025 7.83461ZM183.405 50.1007C182.242 52.0374 181.079 53.974 179.93 55.9107C178.936 57.6118 178.152 59.3653 177.878 61.3281C177.8 61.8908 177.734 62.4796 177.747 63.0554C177.76 63.5395 177.839 64.0629 178.074 64.4948C178.401 65.1098 178.95 65.4631 179.59 65.6594C180.152 65.8164 180.714 65.908 181.301 65.8818C182.647 65.8295 183.889 65.2014 185.065 64.5994C185.966 64.1284 186.842 63.6049 187.704 63.0554C188.384 62.6235 189.037 62.1655 189.664 61.6552C190.278 61.158 190.866 60.6084 191.441 60.0719C192.121 59.4045 192.813 58.7502 193.506 58.096C194.146 56.565 194.956 55.1256 195.884 53.7647C196.772 52.4692 197.765 51.2653 198.811 50.0876L198.824 50.0746C202.953 45.9788 207.604 42.0008 213.21 40.1165C213.563 39.9987 213.929 39.8941 214.295 39.8025C216.032 39.3445 217.953 39.0828 219.639 39.9202C219.913 40.0511 220.161 40.2081 220.384 40.4175C221.259 41.2157 221.638 42.328 221.664 43.4926C221.69 44.631 221.455 45.704 220.945 46.7116C220.318 47.9416 219.338 48.9492 218.319 49.839C217.248 50.7812 216.085 51.6186 214.909 52.4038C213.602 53.2805 212.256 54.0918 210.897 54.8769C208.963 55.9761 206.99 57.0229 205.017 58.0436C204.155 58.4885 203.306 58.9203 202.456 59.3522C201.79 59.6924 201.137 60.0195 200.496 60.3597C200.274 62.0739 200.483 63.7489 201.725 65.0443C202.025 65.3584 202.365 65.6332 202.731 65.8818C203.083 65.9996 203.423 66.1043 203.776 66.1828C205.056 66.4707 206.35 66.4183 207.618 66.1304C209.12 65.7902 210.571 65.136 211.877 64.3377C215.967 61.9038 219.652 58.868 223.023 55.505C223.376 55.1517 223.742 54.7853 224.068 54.3928C224.29 54.1441 224.486 53.8693 224.643 53.5684C224.813 53.2674 224.957 52.9403 225.074 52.6131C225.257 52.129 225.44 51.6448 225.623 51.1607C226.342 49.2763 226.904 47.3528 227.766 45.5339C229.269 42.3934 230.785 39.2529 232.366 36.1516C234.404 32.1344 236.521 28.1564 238.807 24.2831C240.062 22.124 241.382 20.0041 242.754 17.9235C244.06 15.9738 245.419 14.0633 246.896 12.2313C248.176 10.6349 249.574 9.06465 251.09 7.67759C252.318 6.53915 253.716 5.46614 255.232 4.73335C255.951 4.39313 256.709 4.13142 257.493 4.02674C258.669 3.8828 259.766 4.09217 260.825 4.62867C262.771 5.63625 264.143 7.5729 264.705 9.66658C265.019 10.8574 265.071 12.0874 264.914 13.3174C264.248 18.8526 259.766 24.4924 256.055 28.4181L256.042 28.4312L256.029 28.4443C254.592 29.6743 253.141 30.9043 251.704 32.1344L251.56 32.2652L251.417 32.1344C250.816 31.5848 250.215 31.0352 249.613 30.4856L249.457 30.3547L249.587 30.1977C250.842 28.5882 252.096 26.9656 253.35 25.3561C254.2 24.27 255.062 23.1708 255.807 22.0062C256.905 20.3051 257.963 18.5647 258.904 16.772C259.453 15.699 260.001 14.5475 260.38 13.3959C260.576 12.8202 260.681 12.1659 260.707 11.5509C260.733 10.805 260.642 9.79744 260.08 9.23476C259.74 8.90762 259.309 8.78985 258.852 8.80294C258.642 8.80294 258.433 8.8422 258.237 8.89454C257.401 9.16933 256.709 9.91521 256.173 10.5695C255.807 11.0144 255.467 11.4855 255.101 11.9304C251.534 16.3271 248.568 21.208 245.733 26.102C242.283 32.0297 238.86 37.9574 235.423 43.8982C235.998 43.3486 236.573 42.799 237.148 42.2494L237.409 41.9877L237.514 42.3541C237.736 43.2308 237.971 44.0945 238.193 44.9712L238.219 45.089L238.154 45.1675C235.841 47.9024 233.542 50.6372 231.242 53.3721C230.027 56.421 228.811 60.4252 229.439 63.7227C229.713 64.5733 230.183 65.45 231.02 65.8295C231.49 66.0389 232.013 66.065 232.509 65.9865C233.176 65.8818 233.842 65.607 234.443 65.293C237.775 63.1208 240.794 60.4906 243.498 57.5595C244.962 55.806 246.425 54.0395 247.889 52.286L248.032 52.1028L248.202 52.2598C248.999 53.0188 249.809 53.7647 250.607 54.5105L250.763 54.6545L250.62 54.8115C248.934 56.7351 247.248 58.6717 245.563 60.5953C244.139 62.2179 242.754 63.9059 241.225 65.45C239.814 66.8763 238.298 68.1325 236.56 69.1663C234.378 70.4617 231.529 71.6656 228.929 71.4432C228.25 71.3908 227.583 71.2338 226.956 70.959C223.833 69.5719 223.036 67.2558 223.036 64.0106C223.036 63.8797 223.036 63.762 223.036 63.6311C223.049 62.6235 223.101 61.629 223.167 60.6345C221.546 62.5319 219.704 64.2069 217.666 65.6594C215.614 67.1249 213.419 68.3419 211.132 69.3887C209.8 69.9776 208.428 70.4356 207.003 70.7365C205.801 70.9852 204.586 71.1029 203.358 71.0637C201.176 70.9982 199.137 70.4617 197.099 69.6766H197.086C194.342 68.3419 192.852 66.3267 192.617 63.3302C189.834 66.209 186.515 68.3681 182.804 69.8991H182.791C182.504 69.9907 182.216 70.0823 181.929 70.1608C180.295 70.6449 178.466 71.0113 176.767 70.658C174.912 70.2655 173.605 69.1139 172.638 67.5175L172.625 67.5044V67.4913C171.815 65.607 171.711 63.6965 171.802 61.7076C170.953 62.3487 170.103 62.9899 169.254 63.6311C168.313 64.3377 167.386 65.0444 166.432 65.7379C165.36 66.5361 164.263 67.3081 163.139 68.0278C161.702 68.9438 160.16 69.8075 158.566 70.4356C157.207 70.9721 155.665 71.3908 154.188 71.26C153.47 71.1945 152.764 70.959 152.098 70.6842C150.334 69.9645 148.923 68.813 148.295 66.981C147.524 64.7172 148.322 62.2964 149.197 60.2027C150.595 56.8528 152.816 54.1311 155.129 51.4093H155.142V51.3962C157.729 48.6613 160.656 46.3321 164.001 44.5787C165.53 43.7935 167.098 43.0477 168.771 42.6289C170.417 42.2233 172.037 42.1709 173.71 42.2494C176.127 42.3803 178.479 42.9168 180.596 44.0945C180.988 43.5449 181.367 42.9953 181.759 42.4457L181.863 42.2887L182.033 42.3672C183.601 43.1393 185.182 43.9113 186.763 44.6833L186.999 44.8011L186.842 45.0105C186.332 45.7171 185.823 46.4237 185.313 47.1303C185.888 47.9024 186.424 48.6744 186.907 49.4988C187.181 49.9699 187.443 50.454 187.704 50.9382L187.809 51.1214L187.626 51.2261C186.842 51.6579 186.071 52.0897 185.3 52.5215L185.13 52.6131L185.012 52.443C184.477 51.671 183.941 50.8859 183.405 50.1007ZM143.905 46.5938C143.957 46.5415 144.01 46.4891 144.062 46.4368C145.813 44.8142 147.511 43.1393 149.158 41.3989C151.013 39.423 152.777 37.3686 154.463 35.2487C157.52 31.166 160.356 26.8347 162.25 22.0716C162.29 21.9669 162.564 21.3388 162.577 21.1818C162.512 21.1556 162.342 21.1295 162.29 21.1164C162.015 21.0771 161.728 21.0248 161.453 20.9724C159.637 20.606 157.834 20.2266 156.018 19.8602C155.717 19.7947 155.417 19.7162 155.103 19.6508C155.051 19.6377 154.868 19.5854 154.816 19.6116C154.763 19.6377 154.698 19.7817 154.672 19.834C154.567 20.0826 154.476 20.3443 154.371 20.606C150.909 29.1901 147.446 37.7873 143.983 46.3845C143.957 46.4499 143.931 46.5153 143.905 46.5938ZM163.805 8.37112C162.629 8.54123 160.983 10.0853 160.186 10.9097C159.755 11.3546 159.337 11.8126 158.932 12.2968C158.84 12.4145 158.749 12.5192 158.657 12.6239C158.213 13.1866 157.769 13.7623 157.351 14.3381C157.102 14.6783 156.854 15.0316 156.632 15.3849C156.449 15.6728 156.266 15.9738 156.109 16.2878C156.096 16.3271 156.031 16.4841 156.044 16.5234C156.07 16.5757 156.344 16.6411 156.397 16.6542C156.553 16.6804 156.723 16.7066 156.88 16.7327C157.102 16.772 157.311 16.8113 157.533 16.8505C159.572 17.2431 161.61 17.6487 163.649 18.0936C163.714 18.1067 163.949 18.1591 164.028 18.1198C164.067 18.1067 164.132 17.989 164.158 17.9366C164.263 17.7403 164.354 17.5179 164.459 17.2954C164.576 17.0599 164.668 16.7982 164.759 16.5365C164.955 15.9476 165.099 15.3457 165.23 14.7438C165.334 14.3119 165.386 13.8539 165.426 13.409C165.478 12.8202 165.491 12.2313 165.478 11.6425C165.465 11.0275 165.426 10.3863 165.282 9.78435C165.099 8.98614 164.681 8.37112 163.805 8.37112ZM169.045 5.58391C168.941 5.64934 168.784 5.74094 168.771 5.88488C168.731 6.09424 168.993 6.51298 169.084 6.69618C169.489 7.41588 169.816 8.17484 170.064 8.95997C170.365 9.91521 170.548 10.9228 170.6 11.9173C170.652 12.9772 170.548 14.0502 170.365 15.0971C170.195 16.0523 169.96 16.9945 169.698 17.9235C169.62 18.1852 169.529 18.46 169.476 18.7348C169.45 18.8264 169.424 18.9834 169.476 19.075C169.529 19.1797 169.738 19.2452 169.829 19.2713C170.038 19.3237 170.247 19.3498 170.456 19.376C170.809 19.4284 171.162 19.4545 171.515 19.4938C172.259 19.5461 173.004 19.5854 173.749 19.6246C174.677 19.6639 175.591 19.7031 176.506 19.7293C177.29 19.7424 178.087 19.7555 178.871 19.7686C181.001 19.7686 183.118 19.7031 185.235 19.4153C187.038 19.1666 188.841 18.7872 190.592 18.303C191.912 17.9497 193.231 17.531 194.446 16.8898C195.466 16.3664 196.433 15.6859 197.295 14.9269C197.961 14.325 198.575 13.6577 199.02 12.8856C199.451 12.1397 199.66 11.3939 199.725 10.5302C199.791 9.57498 199.686 8.39729 199.255 7.53365C198.824 6.65692 198.053 6.05499 197.243 5.54465C196.315 4.95581 195.387 4.5109 194.342 4.17068C193.022 3.75194 191.611 3.5164 190.239 3.35938C188.619 3.17618 186.972 3.12384 185.339 3.12384C184.451 3.12384 183.575 3.13693 182.687 3.18927C181.707 3.24161 180.74 3.33321 179.76 3.45098C178.767 3.56875 177.774 3.72577 176.78 3.89588C175.604 4.10525 174.429 4.3277 173.266 4.55016C172.39 4.70718 171.502 4.87729 170.626 5.07358C170.299 5.15209 169.986 5.2306 169.672 5.33529C169.463 5.40071 169.241 5.47923 169.045 5.58391ZM110.977 53.0057C111.017 52.9926 111.043 52.9795 111.069 52.9664C111.33 52.8618 111.605 52.7309 111.866 52.6131C113.395 51.9196 114.91 51.2392 116.439 50.5456C117.876 49.7474 119.327 48.9623 120.699 48.0463C121.326 47.6276 121.927 47.1696 122.515 46.6985C122.816 46.4237 123.09 46.1358 123.364 45.8349C123.665 45.4946 123.979 45.1021 124.188 44.6833C124.305 44.4609 124.462 44.0945 124.384 43.8328C124.122 43.0477 123.417 42.9561 122.698 42.9822C121.718 43.0215 120.803 43.401 119.98 43.9113C119.405 44.2515 118.843 44.6572 118.308 45.0497C117.759 45.4554 117.223 45.861 116.7 46.2798C114.701 47.8893 112.911 49.7867 111.578 51.9981C111.409 52.286 111.226 52.5739 111.056 52.8749C111.043 52.901 111.003 52.9534 110.977 53.0057ZM123.051 73.6153C119.797 74.6098 116.557 75.6043 113.303 76.5988C111.761 77.0176 110.259 77.541 108.795 78.1822C107.449 78.7841 106.156 79.4646 104.888 80.2235C104.222 80.5899 103.556 81.0348 103.02 81.5713C102.314 82.2649 101.609 83.2855 101.713 84.3193C101.792 85.0782 102.288 85.6409 102.902 86.0466C103.203 86.2036 103.516 86.3083 103.843 86.3737C104.797 86.5831 105.855 86.4915 106.809 86.3475C107.201 86.2952 107.58 86.2036 107.972 86.112C111.631 85.3007 114.675 83.5603 117.367 80.9694C119.601 78.8103 121.404 76.2324 123.051 73.6153ZM74.2995 35.6413C74.9136 35.8899 76.0112 36.0077 76.56 36.0469C77.4093 36.1254 78.2587 36.1516 79.1211 36.1647C80.3101 36.1909 81.5122 36.1778 82.7144 36.1516C84.8834 36.1123 86.9871 35.7983 89.0516 35.0786C91.4428 34.2542 93.5857 32.9457 95.5326 31.3231C98.3812 28.5359 100.158 25.7748 100.472 21.7052C100.72 18.604 99.9622 14.9139 97.6364 12.6893C97.4796 12.5454 97.2966 12.4014 97.0745 12.3753C96.7086 12.336 96.2644 12.6501 95.99 12.8464C95.7025 13.0688 95.415 13.3043 95.1406 13.5268C94.7748 13.8409 94.4089 14.1549 94.03 14.469C91.2207 16.7982 88.6204 19.376 86.1378 22.0455C83.6159 24.7672 81.2117 27.5806 78.8205 30.394C77.3179 32.1474 75.8283 33.9009 74.2995 35.6413ZM214.334 44.6964C213.942 44.5001 213.484 44.4216 213.053 44.4085C211.734 44.3693 210.283 45.4554 209.329 46.2667C208.676 46.8163 208.049 47.4182 207.448 48.0201C206.742 48.7268 206.063 49.4595 205.409 50.2185C204.704 51.0429 204.011 51.9065 203.397 52.8094C203.005 53.3721 202.6 54.0133 202.299 54.6545C203.449 54.1441 204.599 53.6338 205.749 53.1366C208.441 51.9458 212.909 49.9306 214.36 47.2612C214.582 46.8686 214.726 46.4499 214.791 46.0181C214.869 45.4423 214.791 45.0628 214.334 44.6964ZM178.858 46.5676C178.793 46.5415 178.714 46.5153 178.649 46.4891C178.401 46.3975 178.139 46.319 177.891 46.2536C177.094 46.0442 176.284 45.9265 175.474 45.8872C173.762 45.8479 172.037 45.9919 170.404 46.5415C169.698 46.777 169.019 47.1042 168.379 47.4575C167.66 47.85 166.967 48.2949 166.301 48.766C165.112 49.6166 163.949 50.598 162.917 51.6448C162.198 52.3645 161.519 53.1235 160.852 53.8955C158.592 56.5388 155.064 60.5299 155.534 64.2592C155.587 64.6256 155.678 64.9789 155.796 65.3191C155.939 65.6332 156.161 65.8687 156.462 66.0388C157.455 66.6146 158.827 66.2351 159.82 65.8295C160.552 65.5416 161.257 65.1621 161.924 64.7565C162.669 64.3116 163.387 63.8143 164.093 63.304C165.177 62.5189 166.236 61.6814 167.268 60.8308C167.712 60.4644 168.143 60.085 168.588 59.7186C168.927 59.4307 169.267 59.1428 169.62 58.868C170.482 57.9389 171.319 56.9837 172.116 56.0154C174.076 53.6469 175.918 51.1607 177.591 48.5959C178.022 47.9285 178.453 47.2481 178.858 46.5676Z" fill="#B79F84"/>
</svg>
