<svg width="106" height="106" viewBox="0 0 106 106" fill="none" xmlns="http://www.w3.org/2000/svg">
<circle cx="53" cy="53" r="52.5" stroke="#B79F84"/>
<g filter="url(#filter0_b_296_1285)">
<rect x="6" y="6" width="93.381" height="93.381" rx="46.6905" fill="#A5A5A5" fill-opacity="0.3"/>
</g>
<path d="M53.5 79.675C49.05 79.675 45.3 79.025 42.25 77.725C39.2 76.425 36.875 74.65 35.275 72.4C33.725 70.1 32.95 67.525 32.95 64.675C32.95 63.275 33.15 62.075 33.55 61.075C34 60.025 34.55 59.1 35.2 58.3H47.425C46.125 58.85 44.925 59.425 43.825 60.025C42.775 60.625 41.95 61.35 41.35 62.2C40.75 63 40.45 63.975 40.45 65.125C40.45 66.675 40.9 68.075 41.8 69.325C42.7 70.525 44.075 71.475 45.925 72.175C47.825 72.875 50.275 73.225 53.275 73.225C56.725 73.225 60.025 72.725 63.175 71.725C66.375 70.675 68.975 69.35 70.975 67.75L73.15 73.6C70.6 75.5 67.575 77 64.075 78.1C60.625 79.15 57.1 79.675 53.5 79.675ZM28.525 59.875V55.675H76.825V59.875H28.525ZM28.525 49.525V45.325H76.825V49.525H28.525ZM56.65 47.575C58.1 46.925 59.425 46.3 60.625 45.7C61.825 45.1 62.8 44.4 63.55 43.6C64.35 42.8 64.75 41.8 64.75 40.6C64.75 39.05 64.3 37.65 63.4 36.4C62.55 35.15 61.175 34.15 59.275 33.4C57.425 32.65 55.025 32.275 52.075 32.275C49.725 32.275 47.275 32.575 44.725 33.175C42.175 33.775 39.725 34.7 37.375 35.95L35.425 29.95C37.825 28.6 40.45 27.575 43.3 26.875C46.2 26.175 49.05 25.825 51.85 25.825C56.25 25.825 59.95 26.5 62.95 27.85C65.95 29.15 68.225 30.95 69.775 33.25C71.375 35.5 72.175 38.05 72.175 40.9C72.175 42.35 71.975 43.625 71.575 44.725C71.175 45.775 70.65 46.725 70 47.575H56.65Z" fill="white"/>
<defs>
<filter id="filter0_b_296_1285" x="-4" y="-4" width="113.381" height="113.381" filterUnits="userSpaceOnUse" color-interpolation-filters="sRGB">
<feFlood flood-opacity="0" result="BackgroundImageFix"/>
<feGaussianBlur in="BackgroundImageFix" stdDeviation="5"/>
<feComposite in2="SourceAlpha" operator="in" result="effect1_backgroundBlur_296_1285"/>
<feBlend mode="normal" in="SourceGraphic" in2="effect1_backgroundBlur_296_1285" result="shape"/>
</filter>
</defs>
</svg>
