<svg width="25" height="25" viewBox="0 0 25 25" fill="none" xmlns="http://www.w3.org/2000/svg">
<path d="M20.2085 15.474C19.3689 15.2934 18.7047 15.6832 18.1166 16.0237C17.5142 16.3745 16.3689 17.3036 15.7125 17.0658C12.3514 15.6819 9.19016 12.74 7.82174 9.36547C7.58055 8.69497 8.5053 7.54239 8.85354 6.93297C9.19145 6.34303 9.57322 5.67254 9.3991 4.82662C9.24175 4.06646 7.20652 1.47673 6.48684 0.768554C6.01221 0.300766 5.52597 0.043482 5.02684 0.00190081C3.15025 -0.0786628 1.0544 2.42531 0.686816 3.02433C-0.234069 4.30166 -0.22891 6.00129 0.702293 8.06216C2.94646 13.5977 11.4343 21.9516 16.9906 24.2801C18.016 24.7596 18.9536 25 19.7958 25C20.62 25 21.3538 24.77 21.9845 24.3139C22.4604 24.0397 25.067 21.8398 24.9987 19.9128C24.9574 19.4216 24.7007 18.9304 24.239 18.4549C23.5361 17.7285 20.963 15.6325 20.2085 15.474" fill="white"/>
</svg>
