<svg width="32" height="32" viewBox="0 0 32 32" fill="none" xmlns="http://www.w3.org/2000/svg">
<path d="M16 2.21509L16 29.7848" stroke="white" stroke-width="1.5" stroke-linecap="round" stroke-linejoin="round"/>
<path d="M29.7849 16L2.21533 16" stroke="white" stroke-width="1.5" stroke-linecap="round" stroke-linejoin="round"/>
<path d="M20.1323 7.40305C20.3948 7.72346 20.8673 7.77039 21.1877 7.50788C21.5081 7.24537 21.5551 6.77282 21.2925 6.45241L20.1323 7.40305ZM15.9998 2.21516L16.4725 1.63286C16.1971 1.40926 15.8026 1.40926 15.5272 1.63286L15.9998 2.21516ZM10.7071 6.45241C10.4446 6.77282 10.4915 7.24537 10.8119 7.50788C11.1323 7.77039 11.6049 7.72346 11.8674 7.40305L10.7071 6.45241ZM21.2925 6.45241C19.5679 4.34738 18.4992 3.27802 16.4725 1.63286L15.5272 2.79746C17.4716 4.37588 18.4689 5.37282 20.1323 7.40305L21.2925 6.45241ZM11.8674 7.40305C13.5308 5.37282 14.528 4.37588 16.4725 2.79746L15.5272 1.63286C13.5004 3.27802 12.4318 4.34738 10.7071 6.45241L11.8674 7.40305Z" fill="white"/>
<path d="M24.5969 20.1325C24.2765 20.395 24.2296 20.8676 24.4921 21.188C24.7546 21.5084 25.2272 21.5553 25.5476 21.2928L24.5969 20.1325ZM29.7848 16.0001L30.3671 16.4728C30.5907 16.1973 30.5907 15.8028 30.3671 15.5274L29.7848 16.0001ZM25.5476 10.7074C25.2272 10.4448 24.7546 10.4918 24.4921 10.8122C24.2296 11.1326 24.2765 11.6051 24.5969 11.8676L25.5476 10.7074ZM25.5476 21.2928C27.6526 19.5681 28.722 18.4995 30.3671 16.4728L29.2025 15.5274C27.6241 17.4719 26.6272 18.4691 24.5969 20.1325L25.5476 21.2928ZM24.5969 11.8676C26.6272 13.531 27.6241 14.5283 29.2025 16.4727L30.3671 15.5274C28.722 13.5007 27.6526 12.432 25.5476 10.7074L24.5969 11.8676Z" fill="white"/>
<path d="M11.8677 24.5969C11.6052 24.2765 11.1327 24.2296 10.8123 24.4921C10.4919 24.7546 10.4449 25.2272 10.7075 25.5476L11.8677 24.5969ZM16.0002 29.7848L15.5275 30.3671C15.8029 30.5907 16.1974 30.5907 16.4728 30.3671L16.0002 29.7848ZM21.2929 25.5476C21.5554 25.2272 21.5085 24.7546 21.1881 24.4921C20.8677 24.2296 20.3951 24.2765 20.1326 24.5969L21.2929 25.5476ZM10.7075 25.5476C12.4321 27.6526 13.5008 28.722 15.5275 30.3671L16.4728 29.2025C14.5284 27.6241 13.5311 26.6272 11.8677 24.5969L10.7075 25.5476ZM20.1326 24.5969C18.4692 26.6272 17.472 27.6241 15.5275 29.2025L16.4728 30.3671C18.4996 28.722 19.5682 27.6526 21.2929 25.5476L20.1326 24.5969Z" fill="white"/>
<path d="M7.40305 11.8675C7.72346 11.605 7.77039 11.1324 7.50788 10.812C7.24537 10.4916 6.77282 10.4447 6.45241 10.7072L7.40305 11.8675ZM2.21516 15.9999L1.63286 15.5273C1.40926 15.8027 1.40926 16.1972 1.63286 16.4726L2.21516 15.9999ZM6.45241 21.2926C6.77282 21.5552 7.24537 21.5082 7.50788 21.1878C7.77039 20.8674 7.72346 20.3949 7.40305 20.1324L6.45241 21.2926ZM6.45241 10.7072C4.34738 12.4319 3.27802 13.5005 1.63286 15.5273L2.79746 16.4726C4.37588 14.5281 5.37282 13.5309 7.40305 11.8675L6.45241 10.7072ZM7.40305 20.1324C5.37282 18.469 4.37588 17.4717 2.79746 15.5273L1.63286 16.4726C3.27802 18.4993 4.34738 19.568 6.45241 21.2926L7.40305 20.1324Z" fill="white"/>
</svg>
