<svg width="80" height="81" viewBox="0 0 80 81" fill="none" xmlns="http://www.w3.org/2000/svg">
<g filter="url(#filter0_b_78_697)">
<path d="M0 10.8973C0 5.37449 4.47715 0.897339 10 0.897339H80V80.8973H10C4.47715 80.8973 0 76.4202 0 70.8973V10.8973Z" fill="#B8B8B8" fill-opacity="0.2"/>
<path d="M49.3333 54.3973H30.6667C29.1939 54.3973 28 53.1885 28 51.6973V32.7973C28 31.3062 29.1939 30.0973 30.6667 30.0973H33.3333V27.3973H36V30.0973H44V27.3973H46.6667V30.0973H49.3333C50.8061 30.0973 52 31.3062 52 32.7973V51.6973C52 53.1885 50.8061 54.3973 49.3333 54.3973ZM30.6667 38.1973V51.6973H49.3333V38.1973H30.6667ZM30.6667 32.7973V35.4973H49.3333V32.7973H30.6667ZM46.6667 48.9973H44V46.2973H46.6667V48.9973ZM41.3333 48.9973H38.6667V46.2973H41.3333V48.9973ZM36 48.9973H33.3333V46.2973H36V48.9973ZM46.6667 43.5973H44V40.8973H46.6667V43.5973ZM41.3333 43.5973H38.6667V40.8973H41.3333V43.5973ZM36 43.5973H33.3333V40.8973H36V43.5973Z" fill="white"/>
</g>
<defs>
<filter id="filter0_b_78_697" x="-10" y="-9.10266" width="100" height="100" filterUnits="userSpaceOnUse" color-interpolation-filters="sRGB">
<feFlood flood-opacity="0" result="BackgroundImageFix"/>
<feGaussianBlur in="BackgroundImageFix" stdDeviation="5"/>
<feComposite in2="SourceAlpha" operator="in" result="effect1_backgroundBlur_78_697"/>
<feBlend mode="normal" in="SourceGraphic" in2="effect1_backgroundBlur_78_697" result="shape"/>
</filter>
</defs>
</svg>
