<svg width="25" height="25" viewBox="0 0 25 25" fill="none" xmlns="http://www.w3.org/2000/svg">
<path fill-rule="evenodd" clip-rule="evenodd" d="M14.9771 0.544644C14.7102 0.506383 14.4421 0.585296 14.2288 0.755077C14.0096 0.92725 13.8725 1.17594 13.8427 1.45453C13.7796 2.01768 14.1859 2.52702 14.7483 2.59039C18.6269 3.02321 21.6415 6.0446 22.0776 9.93523C22.136 10.4565 22.5733 10.8499 23.0952 10.8499C23.1345 10.8499 23.1727 10.8475 23.212 10.8427C23.4849 10.8128 23.7279 10.6777 23.8995 10.4625C24.0699 10.2473 24.1474 9.97947 24.1164 9.70566C23.573 4.85135 19.816 1.08388 14.9771 0.544644ZM15.0516 4.7109C14.482 4.60568 13.9589 4.96916 13.8505 5.52513C13.7421 6.08111 14.1067 6.62393 14.6608 6.73273C16.3289 7.05795 17.617 8.34924 17.9435 10.0231V10.0243C18.0365 10.5062 18.4607 10.8565 18.9492 10.8565C19.0147 10.8565 19.0803 10.8505 19.147 10.8386C19.7011 10.7274 20.0657 10.1858 19.9573 9.62858C19.4699 7.12849 17.5455 5.19753 15.0516 4.7109ZM16.9444 16.1975C17.4846 15.886 18.0947 15.5343 18.8643 15.698C19.5614 15.845 21.9373 17.7736 22.5879 18.442C23.0145 18.8796 23.2516 19.3315 23.2886 19.7835C23.3529 21.5566 20.9436 23.5809 20.5051 23.8331C19.9224 24.2528 19.2444 24.4644 18.483 24.4644C17.7049 24.4644 16.8374 24.2432 15.8913 23.802C10.7581 21.6595 2.91644 13.9727 0.843122 8.87922C-0.0171851 6.98293 -0.0231429 5.41903 0.828823 4.24371C1.16842 3.69252 3.1047 1.38851 4.83843 1.46145C5.29956 1.5009 5.74759 1.73764 6.18727 2.16807C6.85216 2.8197 8.73245 5.20262 8.87782 5.90207C9.03868 6.67924 8.68598 7.29738 8.3726 7.84021C8.30575 7.9569 8.2157 8.09537 8.11703 8.24708C7.74258 8.82285 7.24418 9.58921 7.42054 10.0784C8.68478 13.1823 11.6053 15.8905 14.7105 17.1626C15.1907 17.3372 15.9566 16.8352 16.5306 16.4591C16.6801 16.3611 16.8166 16.2716 16.9316 16.2049L16.9444 16.1975Z" fill="white"/>
</svg>
