<svg width="27" height="27" viewBox="0 0 27 27" fill="none" xmlns="http://www.w3.org/2000/svg">
<path d="M13.1568 2.80064C16.6443 2.80064 17.0572 2.81593 18.4288 2.87711C19.7034 2.9332 20.3917 3.14734 20.8506 3.32579C21.4573 3.56032 21.8958 3.84584 22.3496 4.29962C22.8084 4.75849 23.0889 5.19187 23.3234 5.7986C23.5018 6.25747 23.716 6.95087 23.7721 8.22042C23.8332 9.59703 23.8485 10.01 23.8485 13.4923C23.8485 16.9798 23.8332 17.3927 23.7721 18.7643C23.716 20.0389 23.5018 20.7272 23.3234 21.1861C23.0889 21.7928 22.8033 22.2313 22.3496 22.6851C21.8907 23.1439 21.4573 23.4244 20.8506 23.6589C20.3917 23.8373 19.6983 24.0515 18.4288 24.1076C17.0521 24.1687 16.6392 24.184 13.1568 24.184C9.66941 24.184 9.25643 24.1687 7.88491 24.1076C6.61027 24.0515 5.92196 23.8373 5.46309 23.6589C4.85636 23.4244 4.41788 23.1388 3.96411 22.6851C3.50524 22.2262 3.22482 21.7928 2.99028 21.1861C2.81183 20.7272 2.59769 20.0338 2.54161 18.7643C2.48043 17.3876 2.46513 16.9747 2.46513 13.4923C2.46513 10.0049 2.48043 9.59193 2.54161 8.22042C2.59769 6.94577 2.81183 6.25747 2.99028 5.7986C3.22482 5.19187 3.51034 4.75339 3.96411 4.29962C4.42298 3.84074 4.85636 3.56032 5.46309 3.32579C5.92196 3.14734 6.61537 2.9332 7.88491 2.87711C9.25643 2.81593 9.66941 2.80064 13.1568 2.80064ZM13.1568 0.450195C9.61333 0.450195 9.16975 0.465491 7.77784 0.526674C6.39103 0.587857 5.4376 0.812194 4.61163 1.1334C3.74997 1.46991 3.02087 1.91349 2.29688 2.64258C1.56778 3.36658 1.12421 4.09567 0.787701 4.95223C0.466491 5.7833 0.242154 6.73163 0.180971 8.11845C0.119788 9.51545 0.104492 9.95903 0.104492 13.5025C0.104492 17.046 0.119788 17.4896 0.180971 18.8815C0.242154 20.2683 0.466491 21.2218 0.787701 22.0477C1.12421 22.9094 1.56778 23.6385 2.29688 24.3625C3.02087 25.0865 3.74997 25.5352 4.60653 25.8666C5.4376 26.1878 6.38593 26.4121 7.77274 26.4733C9.16465 26.5345 9.60823 26.5498 13.1517 26.5498C16.6952 26.5498 17.1388 26.5345 18.5307 26.4733C19.9175 26.4121 20.871 26.1878 21.6969 25.8666C22.5535 25.5352 23.2826 25.0865 24.0066 24.3625C24.7306 23.6385 25.1793 22.9094 25.5107 22.0528C25.8319 21.2218 26.0562 20.2734 26.1174 18.8866C26.1786 17.4947 26.1939 17.0511 26.1939 13.5076C26.1939 9.96413 26.1786 9.52055 26.1174 8.12864C26.0562 6.74183 25.8319 5.7884 25.5107 4.96243C25.1895 4.09567 24.7459 3.36658 24.0168 2.64258C23.2928 1.91858 22.5637 1.46991 21.7071 1.1385C20.8761 0.817292 19.9277 0.592955 18.5409 0.531772C17.1439 0.465491 16.7003 0.450195 13.1568 0.450195Z" fill="white"/>
<path d="M13.1568 6.79785C9.45521 6.79785 6.45215 9.80091 6.45215 13.5025C6.45215 17.204 9.45521 20.2071 13.1568 20.2071C16.8583 20.2071 19.8614 17.204 19.8614 13.5025C19.8614 9.80091 16.8583 6.79785 13.1568 6.79785ZM13.1568 17.8516C10.7553 17.8516 8.80769 15.9039 8.80769 13.5025C8.80769 11.101 10.7553 9.15339 13.1568 9.15339C15.5582 9.15339 17.5058 11.101 17.5058 13.5025C17.5058 15.9039 15.5582 17.8516 13.1568 17.8516Z" fill="white"/>
<path d="M21.692 6.53255C21.692 7.39931 20.9884 8.09781 20.1268 8.09781C19.26 8.09781 18.5615 7.39421 18.5615 6.53255C18.5615 5.66579 19.2651 4.96729 20.1268 4.96729C20.9884 4.96729 21.692 5.67089 21.692 6.53255Z" fill="white"/>
</svg>
