<svg width="38" height="37" viewBox="0 0 38 37" fill="none" xmlns="http://www.w3.org/2000/svg">
<path d="M19.3461 3.32586C24.2754 3.32586 24.8591 3.34748 26.7976 3.43396C28.5993 3.51323 29.5722 3.8159 30.2207 4.06813C31.0783 4.39963 31.6981 4.8032 32.3395 5.44457C32.988 6.09316 33.3844 6.70571 33.7159 7.56329C33.9681 8.21187 34.2708 9.19196 34.3501 10.9864C34.4365 12.9321 34.4582 13.5159 34.4582 18.4379C34.4582 23.3672 34.4365 23.9509 34.3501 25.8894C34.2708 27.6911 33.9681 28.6639 33.7159 29.3125C33.3844 30.1701 32.9808 30.7899 32.3395 31.4312C31.6909 32.0798 31.0783 32.4762 30.2207 32.8077C29.5722 33.0599 28.5921 33.3626 26.7976 33.4419C24.8519 33.5283 24.2682 33.5499 19.3461 33.5499C14.4169 33.5499 13.8331 33.5283 11.8946 33.4419C10.093 33.3626 9.12009 33.0599 8.4715 32.8077C7.61393 32.4762 6.99417 32.0726 6.35279 31.4312C5.7042 30.7827 5.30784 30.1701 4.97634 29.3125C4.72412 28.6639 4.42144 27.6839 4.34217 25.8894C4.25569 23.9437 4.23407 23.36 4.23407 18.4379C4.23407 13.5087 4.25569 12.9249 4.34217 10.9864C4.42144 9.18475 4.72412 8.21187 4.97634 7.56329C5.30784 6.70571 5.71141 6.08595 6.35279 5.44457C7.00137 4.79599 7.61393 4.39963 8.4715 4.06813C9.12009 3.8159 10.1002 3.51323 11.8946 3.43396C13.8331 3.34748 14.4169 3.32586 19.3461 3.32586ZM19.3461 0.00366211C14.3376 0.00366211 13.7106 0.0252816 11.7433 0.11176C9.78308 0.198238 8.43547 0.515324 7.26801 0.969334C6.05011 1.44496 5.01958 2.07193 3.99626 3.10246C2.96573 4.12578 2.33876 5.15631 1.86313 6.36701C1.40912 7.54167 1.09204 8.88208 1.00556 10.8422C0.91908 12.8168 0.897461 13.4438 0.897461 18.4523C0.897461 23.4608 0.91908 24.0878 1.00556 26.0552C1.09204 28.0154 1.40912 29.363 1.86313 30.5304C2.33876 31.7483 2.96573 32.7789 3.99626 33.8022C5.01958 34.8255 6.05011 35.4597 7.26081 35.9281C8.43547 36.3821 9.77588 36.6992 11.736 36.7857C13.7034 36.8722 14.3304 36.8938 19.3389 36.8938C24.3474 36.8938 24.9744 36.8722 26.9418 36.7857C28.9019 36.6992 30.2496 36.3821 31.417 35.9281C32.6277 35.4597 33.6582 34.8255 34.6816 33.8022C35.7049 32.7789 36.3391 31.7483 36.8075 30.5376C37.2615 29.363 37.5786 28.0226 37.6651 26.0624C37.7515 24.095 37.7732 23.468 37.7732 18.4595C37.7732 13.451 37.7515 12.824 37.6651 10.8567C37.5786 8.89649 37.2615 7.54887 36.8075 6.38142C36.3535 5.15631 35.7265 4.12578 34.696 3.10246C33.6727 2.07914 32.6421 1.44496 31.4314 0.976541C30.2568 0.522531 28.9164 0.205444 26.9562 0.118966C24.9816 0.0252816 24.3546 0.00366211 19.3461 0.00366211Z" fill="#B79F84"/>
<path d="M19.3462 8.97571C14.1143 8.97571 9.86963 13.2203 9.86963 18.4523C9.86963 23.6842 14.1143 27.9288 19.3462 27.9288C24.5781 27.9288 28.8227 23.6842 28.8227 18.4523C28.8227 13.2203 24.5781 8.97571 19.3462 8.97571ZM19.3462 24.5994C15.9519 24.5994 13.199 21.8465 13.199 18.4523C13.199 15.058 15.9519 12.3051 19.3462 12.3051C22.7404 12.3051 25.4933 15.058 25.4933 18.4523C25.4933 21.8465 22.7404 24.5994 19.3462 24.5994Z" fill="#B79F84"/>
<path d="M31.4097 8.60095C31.4097 9.82606 30.4152 10.8134 29.1973 10.8134C27.9722 10.8134 26.9849 9.81885 26.9849 8.60095C26.9849 7.37584 27.9794 6.38855 29.1973 6.38855C30.4152 6.38855 31.4097 7.38305 31.4097 8.60095Z" fill="#B79F84"/>
</svg>
