<svg width="135" height="51" viewBox="0 0 135 51" fill="none" xmlns="http://www.w3.org/2000/svg">
<path fill-rule="evenodd" clip-rule="evenodd" d="M89.5306 43.8238H88.602V48.9974H91.6001V48.3208H89.5306V43.8238ZM134.255 46.729V46.0524H132.425V44.5004H134.388V43.8238H131.496V48.9974H134.514V48.3208H132.425V46.729H134.255ZM126.601 43.8238H125.666V46.8351C125.666 48.2744 126.283 49.0902 127.775 49.0902C129.314 49.0902 129.957 48.2678 129.957 46.7754V43.8238H129.029V46.8948C129.029 47.3326 128.943 47.8234 128.584 48.1152C128.366 48.2877 128.1 48.3474 127.822 48.3474C127.55 48.3474 127.278 48.2877 127.059 48.1152C126.687 47.8167 126.601 47.2994 126.601 46.8484V43.8238ZM124.89 50.5893V49.8928C124.863 49.8928 124.837 49.8994 124.804 49.9061C124.751 49.9127 124.698 49.9193 124.638 49.926C124.592 49.9326 124.545 49.9326 124.492 49.9326C124.339 49.9326 124.194 49.926 124.041 49.8994C123.895 49.8795 123.756 49.8331 123.623 49.7801C123.477 49.7137 123.345 49.6341 123.219 49.5413C123.126 49.4683 123.033 49.3821 122.947 49.2959L122.641 49.004L123.026 48.8448C123.457 48.6591 123.802 48.3739 124.054 47.9759C124.366 47.4917 124.479 46.9412 124.479 46.3708C124.479 45.6545 124.293 44.9846 123.789 44.4539C123.298 43.9432 122.681 43.731 121.985 43.731C121.242 43.731 120.579 43.9432 120.055 44.4871C119.531 45.0376 119.338 45.7341 119.338 46.4836C119.338 46.8285 119.391 47.1734 119.511 47.4984C119.617 47.7969 119.776 48.0754 119.988 48.3142C120.201 48.5464 120.453 48.7254 120.738 48.8581C121.03 48.9974 121.341 49.0637 121.666 49.077L121.779 49.0836L121.859 49.1698C122.038 49.3622 122.217 49.5545 122.403 49.7469C122.569 49.9193 122.754 50.0852 122.953 50.2311C123.132 50.3571 123.325 50.4632 123.53 50.5428C123.736 50.6224 123.955 50.6556 124.174 50.6556C124.339 50.6556 124.512 50.6489 124.684 50.6224C124.751 50.6158 124.817 50.6025 124.89 50.5893ZM121.905 48.3474C121.441 48.3474 121.05 48.1749 120.758 47.8101C120.439 47.4188 120.333 46.9147 120.333 46.4172C120.333 45.9198 120.439 45.4223 120.758 45.0243C121.063 44.6463 121.461 44.4672 121.938 44.4672C122.409 44.4672 122.801 44.6396 123.086 45.0177C123.391 45.4223 123.484 45.9397 123.484 46.4371C123.484 46.9346 123.384 47.4387 123.066 47.83C122.767 48.1882 122.37 48.3474 121.905 48.3474ZM118.562 44.4539V43.8238H116.698V44.4539H117.163V48.3673H116.698V48.9974H118.562V48.3673H118.091V44.4539H118.562ZM115.73 44.5004V43.8238H111.624V44.5004H113.21V48.9974H114.138V44.5004H115.73ZM107.247 43.8238H106.312V46.8351C106.312 48.2744 106.928 49.0902 108.421 49.0902C109.96 49.0902 110.603 48.2678 110.603 46.7754V43.8238H109.674V46.8948C109.674 47.3326 109.588 47.8234 109.23 48.1152C109.011 48.2877 108.739 48.3474 108.467 48.3474C108.195 48.3474 107.923 48.2877 107.704 48.1152C107.333 47.8167 107.247 47.2994 107.247 46.8484V43.8238ZM102.617 43.731C101.881 43.731 101.224 43.9432 100.707 44.4871C100.183 45.0376 99.9839 45.7341 99.9839 46.4836C99.9839 47.1999 100.183 47.8499 100.694 48.3739C101.191 48.8846 101.821 49.0902 102.531 49.0902C103.254 49.0902 103.897 48.878 104.408 48.3474C104.932 47.8035 105.124 47.1137 105.124 46.3708C105.124 45.6545 104.939 44.9779 104.434 44.4539C103.944 43.9366 103.32 43.731 102.617 43.731ZM103.712 47.83C103.413 48.1882 103.015 48.3474 102.551 48.3474C102.086 48.3474 101.702 48.1749 101.403 47.8101C101.085 47.4188 100.979 46.9147 100.979 46.4172C100.979 45.9198 101.085 45.4157 101.403 45.0177C101.702 44.6463 102.106 44.4672 102.584 44.4672C103.048 44.4672 103.44 44.6396 103.725 45.0111C104.037 45.4091 104.129 45.9397 104.129 46.4371C104.129 46.9346 104.03 47.4387 103.712 47.83ZM95.2282 43.8238V48.9974H97.2048C97.6956 48.9974 98.2129 48.9045 98.5976 48.5862C98.9425 48.3142 99.0885 47.9494 99.0885 47.5183C99.0885 47.2198 98.989 46.9678 98.7767 46.7555C98.6308 46.603 98.4451 46.4968 98.2395 46.4371L97.5762 46.2315L98.1997 45.9198C98.3522 45.8402 98.4849 45.7407 98.6043 45.6147C98.7767 45.4223 98.863 45.2034 98.863 44.9448C98.863 44.5999 98.7303 44.3279 98.4385 44.1356C98.0604 43.8835 97.5364 43.8238 97.092 43.8238H95.2282ZM96.1568 44.4075H96.7869C97.1318 44.4075 97.5563 44.4672 97.7619 44.7789C97.8415 44.8983 97.868 45.0376 97.868 45.1769C97.868 45.4289 97.7818 45.6545 97.5895 45.8136C97.3838 45.9861 97.1252 46.0392 96.8731 46.0392H96.1568V44.4075ZM96.1568 46.6295H97.0058C97.2777 46.6295 97.5629 46.6825 97.7884 46.855C97.9941 47.0142 98.0936 47.2397 98.0936 47.505C98.0936 47.7703 97.9941 48.0025 97.7818 48.1749C97.5629 48.354 97.2777 48.4137 96.9991 48.4137H96.1568V46.6295ZM87.1163 46.729V46.0524H85.2923V44.5004H87.249V43.8238H84.3637V48.9974H87.3816V48.3208H85.2923V46.729H87.1163ZM83.2826 44.5004V43.8238H79.1702V44.5004H80.7555V48.9974H81.6907V44.5004H83.2826ZM75.9334 43.731C75.1972 43.731 74.5339 43.9432 74.0166 44.4871C73.4926 45.0376 73.2936 45.7341 73.2936 46.4836C73.2936 47.1999 73.4926 47.8499 74.0033 48.3739C74.5074 48.8846 75.1309 49.0902 75.8406 49.0902C76.5635 49.0902 77.2069 48.878 77.7177 48.3474C78.2416 47.8035 78.434 47.1137 78.434 46.3708C78.434 45.6545 78.2483 44.9779 77.7442 44.4539C77.2534 43.9366 76.6299 43.731 75.9334 43.731ZM77.0212 47.83C76.7227 48.1882 76.3248 48.3474 75.8671 48.3474C75.4028 48.3474 75.0115 48.1749 74.7196 47.8101C74.3946 47.4188 74.2885 46.9147 74.2885 46.4172C74.2885 45.9198 74.4013 45.4157 74.713 45.0177C75.0181 44.6463 75.4161 44.4672 75.8936 44.4672C76.3579 44.4672 76.7493 44.6396 77.0345 45.0111C77.3528 45.4091 77.4391 45.9397 77.4391 46.4371C77.4391 46.9346 77.3396 47.4387 77.0212 47.83ZM68.4716 43.8238H67.543V48.9974H68.4716V46.7555H71.1114V48.9974H72.04V43.8238H71.1114V46.0193H68.4716V43.8238Z" fill="#281A08"/>
<path fill-rule="evenodd" clip-rule="evenodd" d="M48.58 3.97416C49.8005 3.24455 51.2531 2.97924 52.6526 2.88638L52.7123 2.87975L52.7521 2.93281C52.898 3.14506 53.0505 3.36394 53.2031 3.57619L53.2893 3.70884L53.1368 3.74864C52.2679 3.98742 51.5383 4.39202 50.8551 4.97571C53.3225 6.28236 55.445 8.20587 55.5047 11.184C55.5179 11.7411 55.4516 12.2784 55.3123 12.8157C55.1598 13.406 54.9144 13.9698 54.6424 14.5203C53.8929 15.9994 52.8184 17.18 51.4122 18.0555C50.6561 18.5198 49.8336 18.9112 49.0112 19.2561C48.202 19.5944 47.3662 19.8928 46.5239 20.1382C45.6882 20.3837 44.8193 20.5561 43.9504 20.6357C44.0565 20.6888 44.209 20.7617 44.2953 20.8413C46.179 22.599 46.6897 24.5026 45.2239 26.718C44.9453 27.3083 44.6468 27.892 44.355 28.4756C44.0896 28.993 43.8243 29.517 43.5723 30.041C43.3468 30.5185 43.1279 31.0094 42.9422 31.5002C42.7963 31.8982 42.6636 32.3227 42.6172 32.7472C42.5774 33.039 42.5774 33.3706 42.71 33.6426L42.7167 33.6492V33.6558C42.7631 33.7885 42.8361 33.9079 42.9554 33.9875C43.4065 34.2992 44.3085 33.8615 44.7131 33.6492C45.204 33.3905 45.6815 33.0788 46.1325 32.7604C46.7096 32.3558 47.2734 31.9247 47.8239 31.4803C50.1719 29.2185 52.5199 26.9501 54.8746 24.6883C55.3853 24.1909 55.9093 23.7 56.4598 23.2357C57.0368 22.7582 57.6338 22.3271 58.2573 21.9158C58.7945 21.5577 59.345 21.2194 59.9088 20.9143C61.2089 20.1979 63.5237 19.1102 64.9763 19.9127C65.7656 20.3505 65.9447 21.1066 65.739 21.949C65.2747 23.8393 63.9084 24.8873 62.3563 25.8955C62.0247 26.1077 61.6931 26.3134 61.3614 26.5123C59.3848 27.6996 57.3022 28.668 55.12 29.3976C54.7618 30.1007 54.324 31.1818 54.7552 31.9313C55.1797 32.6609 56.2873 32.8267 57.0435 32.8732H57.0501H57.0567C57.468 32.9461 57.8858 32.9329 58.2904 32.8732C58.7614 32.8002 59.2257 32.6609 59.6701 32.4885C60.1874 32.2961 60.6915 32.0507 61.1757 31.792C61.7196 31.4936 62.2502 31.1686 62.7676 30.8303C64.0676 29.8685 65.3278 28.8537 66.4156 27.6598C67.6095 26.3532 68.5248 24.9138 69.1682 23.2689V23.2623C70.7667 19.7469 72.4514 16.2647 74.0499 12.7427C74.554 11.6218 75.078 10.5141 75.5821 9.39314C75.602 9.34007 75.7811 8.96864 75.7545 8.91558C75.7413 8.88905 75.6551 8.86251 75.6352 8.85588C75.5755 8.83598 75.5158 8.81608 75.4561 8.80282C75.3765 8.78292 75.2903 8.75639 75.2107 8.73649C73.055 8.11301 70.8994 7.49616 68.7437 6.87268C68.684 6.85942 68.6177 6.84615 68.5513 6.82625C68.4917 6.81299 68.432 6.78645 68.3922 6.73339C68.3325 6.64717 68.3656 6.53441 68.3922 6.44155C68.4519 6.2691 68.5049 6.10328 68.5646 5.93083C68.5779 5.89103 68.5911 5.85123 68.6044 5.81144C68.6309 5.73847 68.6508 5.64562 68.7304 5.61245C68.7769 5.59255 68.8233 5.59919 68.8697 5.61245C68.9095 5.62572 68.9493 5.63898 68.9957 5.64562C71.3438 6.2094 73.6586 6.90584 76.0066 7.4829C76.1525 7.51606 76.2918 7.56249 76.4377 7.60892C76.4709 7.62218 76.5637 7.64872 76.5969 7.63545C76.6301 7.62882 76.6632 7.58239 76.6831 7.55586C76.7495 7.46963 76.8158 7.36351 76.8689 7.26401C78.4873 4.55121 81.6975 2.75372 84.5828 1.70575C85.6772 1.30778 86.7981 0.989405 87.9323 0.743992C90.9768 0.0873471 94.0411 -0.237659 97.1453 0.200104C98.7703 0.425619 100.349 0.797054 101.742 1.69911C102.849 2.42209 104.09 3.50986 104.229 4.91601C104.289 5.50633 104.136 6.08338 103.851 6.60074C103.493 7.27065 102.936 7.85433 102.359 8.33852C101.848 8.76966 101.297 9.15436 100.734 9.51253C99.553 10.1891 98.3126 10.7396 97.0126 11.1243C95.8386 11.4692 94.6447 11.6814 93.4309 11.7743C92.2768 11.8672 91.1161 11.8539 89.9553 11.7876C88.8145 11.7212 87.6737 11.6019 86.5394 11.4758C85.9491 11.4161 85.3588 11.3564 84.7685 11.2967C83.2032 14.1223 81.4123 16.8218 79.3628 19.3224C77.5056 21.5842 75.4494 23.6536 73.2009 25.5307C73.1479 25.5705 73.0948 25.6103 73.0484 25.6501C73.1014 25.6434 73.1611 25.6368 73.2142 25.6302C73.5259 25.597 73.8377 25.5639 74.1494 25.5241C74.229 25.5174 74.3152 25.5042 74.3948 25.5108C74.4678 25.5108 74.5407 25.5307 74.5805 25.597C74.6336 25.6766 74.6004 25.7827 74.5673 25.869C74.5275 25.9817 74.4678 26.1011 74.4147 26.2139C74.2953 26.4725 74.1361 26.718 73.9438 26.9302C73.5193 27.3879 72.9621 27.6863 72.3851 27.892C71.7417 28.1241 71.0453 28.2634 70.3687 28.3629C69.2146 30.5384 68.0539 32.714 66.8998 34.8895C69.0952 34.7237 71.284 34.5645 73.4795 34.3987L73.5856 34.3921L73.5989 34.4916C73.652 34.9492 73.7116 35.4003 73.7647 35.8513L73.778 35.9641L73.6652 35.9773C71.0652 36.2559 68.4585 36.5411 65.8584 36.8197C64.8635 38.4712 63.7426 40.0963 62.3829 41.4626C61.7992 42.0463 61.1691 42.5504 60.5058 43.0412C58.0517 44.8785 53.5812 46.2382 50.5699 45.3362C49.9066 45.1372 49.2632 44.7657 48.9979 44.0958C48.8653 43.7642 48.852 43.406 48.905 43.0545C48.9714 42.6499 49.1372 42.2519 49.3362 41.8938C50.0592 40.5805 51.5449 39.5524 52.8118 38.8228C53.6939 38.3187 54.596 37.8743 55.5378 37.4962C56.4664 37.1314 57.4215 36.8396 58.3833 36.5809C60.0481 36.1299 61.7196 35.6722 63.4043 35.2875C64.2599 33.7155 65.1156 32.1502 65.9712 30.5782C65.5334 30.9961 65.0824 31.3874 64.6048 31.7589C64.0013 32.2298 63.3711 32.6543 62.7211 33.0456C61.9584 33.5033 61.189 33.9543 60.3665 34.2926C59.5639 34.6242 58.7348 34.8298 57.8792 34.9957C57.4613 35.0819 57.0368 35.1549 56.619 35.2013C56.2542 35.2411 55.896 35.2676 55.5312 35.261C54.1516 35.2344 52.7786 34.8829 51.9561 33.6824C51.6709 33.2645 51.4852 32.7936 51.3592 32.3094C51.2597 31.9446 51.2 31.5798 51.1403 31.215C49.4556 32.9992 47.5918 34.538 45.3631 35.5926H45.3565L45.3499 35.5992C44.1493 36.0237 42.7697 36.3421 41.5095 35.9906C40.7467 35.7783 40.1232 35.3472 39.5993 34.7503C39.4003 34.5181 39.2345 34.2528 39.1084 33.9676C38.737 33.1385 38.7436 32.19 38.936 31.3145C39.1482 30.3395 39.5926 29.391 40.1498 28.5685C40.2426 28.4292 40.3421 28.2966 40.4416 28.1639C40.7733 27.6598 41.0983 27.1491 41.4034 26.6317C41.6886 26.1608 41.9605 25.67 42.186 25.1593C42.5243 24.3965 42.8294 23.4414 42.5906 22.599C42.3585 21.7699 41.6488 21.2658 40.8993 20.9275C39.3339 20.4632 37.7686 19.9923 36.1966 19.528C34.6313 21.3786 33.0593 23.2291 31.4874 25.0863C30.6384 26.0878 29.7695 27.0695 28.8343 27.9981C27.8659 28.9797 26.8378 29.8884 25.7633 30.7573C24.9806 31.3941 24.1714 31.991 23.3158 32.5349C22.679 32.9395 22.0224 33.3043 21.3525 33.6492C20.603 34.0273 19.8336 34.3722 19.0575 34.6906C18.6927 34.8431 18.3279 34.989 17.9565 35.1151C17.6448 35.2278 17.3264 35.3273 17.0014 35.4268C16.683 35.5197 16.3646 35.6059 16.0463 35.6921C15.6748 35.7982 15.3034 35.9044 14.9386 36.0105L14.8391 36.037L14.7993 35.9375C14.6666 35.5661 14.5274 35.1946 14.3947 34.8232L14.3615 34.7304L14.4411 34.6839C15.0513 34.3456 15.6682 34.014 16.285 33.689C17.2999 33.1518 18.2815 32.5681 19.2234 31.9181C20.0525 31.341 20.8285 30.7175 21.5714 30.041C21.9627 29.6828 22.3341 29.3246 22.6989 28.9466C23.4949 28.1374 24.2709 27.3215 25.0138 26.4593C25.3255 26.0878 25.6373 25.7164 25.9424 25.345C26.3669 24.8342 26.7914 24.3235 27.2159 23.8194C27.773 23.1628 28.3302 22.5061 28.8807 21.8429C29.2256 21.4383 29.5639 21.0337 29.9088 20.6291C30.1276 20.3704 30.3465 20.1051 30.572 19.853C32.3894 17.777 34.1869 15.6876 36.0109 13.6182C38.014 11.3498 40.2095 9.19415 42.6304 7.36351C43.6254 6.60737 44.6601 5.90429 45.7412 5.27418C44.4611 5.02877 43.1611 4.84305 41.861 4.71703C40.6074 4.60427 39.3472 4.55121 38.087 4.54457C36.9196 4.54457 35.7522 4.591 34.5782 4.65733C33.4507 4.72366 32.3297 4.81652 31.2022 4.89611C30.8241 4.92264 30.446 4.94917 30.068 4.97571C28.3832 5.16142 26.7051 5.38694 25.0403 5.67878C23.6806 5.91756 22.3275 6.19614 20.9943 6.54767C18.9713 7.0783 17.008 7.75484 15.1177 8.67016C13.5988 9.4064 12.0998 10.2156 10.6803 11.1376C9.61246 11.834 8.58438 12.5968 7.64253 13.459C5.39402 15.5285 3.84194 17.7703 3.41745 20.8612C3.26489 21.9689 3.27153 23.1827 3.79552 24.1975C4.419 25.4179 5.61953 26.048 6.89302 26.3863H6.89966L6.90629 26.393C7.62263 26.645 8.37877 26.7578 9.1349 26.7777C9.88441 26.7975 10.6472 26.7312 11.39 26.6118C12.239 26.4792 13.0748 26.2736 13.8972 26.0348C14.7927 25.7695 15.6682 25.4511 16.5238 25.0996C17.4192 24.7281 18.3014 24.3235 19.157 23.8725C20.0193 23.4215 20.8683 22.9306 21.6841 22.4C22.4734 21.8893 23.2362 21.3454 23.9658 20.7551C24.6357 20.2112 25.2791 19.6275 25.876 18.9974C26.3934 18.4469 26.8842 17.8433 27.2822 17.1999C27.3883 17.0275 27.4944 16.855 27.5873 16.6759C27.6669 16.5101 27.7531 16.3509 27.8327 16.1851C28.1378 15.5351 28.6087 14.4075 28.2638 13.7044C28.0383 13.2534 27.5276 13.081 27.0633 13.0146C26.6852 12.9682 26.3072 12.9483 25.9291 12.9417C25.8031 12.9417 25.6704 12.9417 25.5444 12.935C25.5046 12.9284 25.4582 12.9284 25.4184 12.9218C25.3587 12.9019 25.299 12.8621 25.299 12.7891C25.299 12.683 25.3056 12.5702 25.3123 12.4707C25.3189 12.3049 25.3322 12.1391 25.3454 11.9733C25.3521 11.8539 25.3653 11.7411 25.3719 11.6284L25.3852 11.5156L25.4913 11.5289C25.9755 11.5687 26.4597 11.5886 26.9373 11.6416C28.1246 11.7743 29.4843 12.1789 29.9884 13.3794C30.5256 14.6463 29.8822 16.2514 29.2389 17.3657C27.3419 20.6357 24.5959 23.0036 21.3657 24.9072C19.8601 25.7894 18.2815 26.519 16.6366 27.0894H16.6299C14.733 27.693 12.763 28.1705 10.7732 28.3695C9.29409 28.5221 7.82825 28.5154 6.34914 28.3231H6.3425C5.16187 28.0976 3.98787 27.7261 2.95979 27.0894C-1.36479 24.4363 -0.343339 19.8597 2.17048 16.2912C2.86029 15.3096 3.71592 14.4075 4.60471 13.5983C5.58637 12.6963 6.64761 11.8738 7.73539 11.111C8.78337 10.3748 9.87778 9.68498 10.9921 9.04823C11.9936 8.47781 13.0217 7.93393 14.0697 7.45637C15.7279 6.70023 17.4391 6.05685 19.1769 5.51296C20.4703 5.10173 21.7902 4.77009 23.1168 4.47825C24.5296 4.17314 25.9556 3.91446 27.3883 3.69558C28.8674 3.47006 30.3598 3.29098 31.8522 3.14506C34.7374 2.85985 37.6426 2.77362 40.5411 2.91954C43.2473 3.0522 45.9402 3.3971 48.58 3.97416ZM93.0993 25.398C92.5089 26.3797 91.9186 27.3547 91.3349 28.343C90.8309 29.1986 90.4329 30.094 90.2936 31.089C90.2538 31.3742 90.2206 31.6726 90.2273 31.9579C90.2339 32.2099 90.2737 32.4686 90.3931 32.6941C90.5589 33.0058 90.8375 33.1783 91.1625 33.2778C91.4477 33.364 91.7329 33.4038 92.0314 33.3972C92.7146 33.3706 93.3447 33.0523 93.9416 32.7405C94.3993 32.5017 94.8437 32.2431 95.2814 31.9645C95.6264 31.739 95.958 31.5068 96.2764 31.2481C96.5881 30.9961 96.8866 30.7242 97.1784 30.4456C97.5233 30.1139 97.8749 29.7823 98.2264 29.4507C98.5514 28.6746 98.9626 27.945 99.4336 27.2552C99.8846 26.5986 100.389 25.9817 100.919 25.3914V25.3848H100.926C103.022 23.3087 105.383 21.2857 108.229 20.3372C108.408 20.2775 108.593 20.2245 108.779 20.1714C109.661 19.9393 110.636 19.8132 111.492 20.2311C111.631 20.2974 111.757 20.3837 111.87 20.4898C112.314 20.8944 112.507 21.4582 112.52 22.0485C112.533 22.6189 112.414 23.1694 112.155 23.6801C111.837 24.297 111.339 24.8143 110.822 25.2654C110.278 25.7363 109.688 26.1674 109.091 26.5654C108.428 27.0098 107.744 27.421 107.055 27.8124C106.073 28.3762 105.071 28.9068 104.07 29.4241C103.632 29.643 103.201 29.8619 102.77 30.0874C102.432 30.2532 102.1 30.4257 101.775 30.5981C101.662 31.467 101.768 32.3094 102.398 32.966C102.551 33.1319 102.723 33.2711 102.909 33.3905C103.088 33.4569 103.261 33.5099 103.44 33.5497C104.09 33.6956 104.746 33.6691 105.39 33.5232C106.153 33.3507 106.889 33.0125 107.552 32.6145C109.628 31.3742 111.499 29.8354 113.21 28.1307C113.389 27.9517 113.575 27.7659 113.74 27.5736C113.853 27.4409 113.953 27.3083 114.032 27.1557C114.119 27.0032 114.192 26.8373 114.251 26.6715C114.344 26.4261 114.437 26.1741 114.53 25.9287C114.895 24.9802 115.18 23.9985 115.618 23.0832C116.38 21.4913 117.15 19.8995 117.952 18.3209C118.987 16.2912 120.062 14.2749 121.222 12.3049C121.859 11.2172 122.529 10.1426 123.225 9.08803C123.889 8.09974 124.578 7.12473 125.328 6.20277C125.978 5.38694 126.688 4.59764 127.457 3.88793C128.081 3.31751 128.79 2.76699 129.56 2.40219C129.924 2.2231 130.309 2.09708 130.707 2.04402C131.304 1.96442 131.861 2.07055 132.398 2.34912C133.387 2.85985 134.083 3.83487 134.368 4.90274C134.528 5.50633 134.554 6.12981 134.475 6.74666C134.136 9.55232 131.861 12.4111 129.978 14.4075L129.971 14.4142H129.964C129.235 15.0443 128.498 15.6677 127.769 16.2912L127.696 16.3576L127.623 16.2912C127.318 16.0126 127.013 15.7341 126.708 15.4555L126.628 15.3892L126.694 15.3029C127.331 14.4871 127.968 13.6713 128.605 12.8554C129.036 12.3049 129.473 11.7411 129.852 11.1575C130.409 10.2952 130.946 9.41304 131.423 8.50434C131.702 7.95382 131.981 7.37677 132.173 6.79309C132.272 6.50125 132.326 6.16961 132.339 5.85786C132.352 5.47316 132.306 4.96907 132.02 4.68386C131.848 4.51141 131.629 4.45172 131.397 4.45835C131.291 4.45835 131.185 4.47825 131.085 4.51141C130.661 4.64407 130.309 5.02877 130.037 5.36041C129.852 5.58592 129.679 5.81807 129.493 6.04358C127.683 8.27883 126.177 10.7462 124.738 13.2269C122.987 16.2315 121.249 19.2428 119.504 22.2475C119.796 21.9689 120.088 21.6903 120.38 21.4117L120.513 21.2857L120.566 21.4648C120.678 21.9092 120.798 22.3536 120.911 22.798L120.924 22.851L120.891 22.8975C119.717 24.2837 118.549 25.6633 117.382 27.0496C116.765 28.595 116.148 30.6247 116.467 32.3028C116.606 32.7273 116.845 33.1783 117.269 33.3706C117.508 33.4768 117.773 33.4834 118.025 33.4436C118.364 33.3972 118.702 33.2512 119.007 33.0987C120.698 31.991 122.23 30.6578 123.603 29.1787C124.346 28.2833 125.089 27.3945 125.832 26.5057L125.905 26.4128L125.991 26.4924C126.396 26.8705 126.807 27.2486 127.212 27.6333L127.291 27.7062L127.218 27.7858C126.363 28.7609 125.507 29.7359 124.651 30.7109C123.928 31.54 123.225 32.3956 122.449 33.1716C121.733 33.8946 120.964 34.538 120.081 35.062C118.974 35.7186 117.528 36.3289 116.208 36.2161C115.863 36.1896 115.525 36.11 115.206 35.9641C113.621 35.261 113.216 34.087 113.216 32.4487C113.216 32.3823 113.216 32.316 113.216 32.2497C113.223 31.7456 113.25 31.2349 113.283 30.7308C112.46 31.6925 111.525 32.5415 110.49 33.2844C109.449 34.0273 108.335 34.6375 107.174 35.1747C106.497 35.4666 105.801 35.7054 105.078 35.8513C104.468 35.9773 103.851 36.037 103.228 36.0237C102.12 35.9906 101.085 35.7186 100.05 35.3207H100.044C98.6509 34.6441 97.8948 33.6227 97.7754 32.1038C96.3626 33.563 94.6779 34.6508 92.7942 35.4268L92.7875 35.4334C92.6416 35.4799 92.4957 35.5197 92.3498 35.5661C91.5207 35.8049 90.5921 35.9906 89.7298 35.8115C88.788 35.6191 88.1247 35.0355 87.6339 34.2263L87.6272 34.2196V34.213C87.216 33.2512 87.1629 32.2895 87.2094 31.2747C86.7782 31.5997 86.3471 31.9247 85.916 32.2497C85.4384 32.6079 84.9675 32.9727 84.4833 33.3242C83.9394 33.7222 83.3822 34.1135 82.8118 34.4783C82.0822 34.9492 81.2995 35.387 80.4903 35.7054C79.8005 35.9773 79.0179 36.1829 78.2684 36.1166C77.9036 36.0901 77.5454 35.9707 77.2071 35.8314C76.3117 35.4666 75.5954 34.8829 75.277 33.9477C74.8857 32.8068 75.2903 31.5798 75.7346 30.5119C76.4444 28.8205 77.5719 27.4409 78.7459 26.0613L78.7526 26.0547C80.0658 24.6684 81.5516 23.4812 83.2496 22.599C84.0256 22.1944 84.8216 21.823 85.6705 21.6107C86.5063 21.4051 87.3287 21.3719 88.1777 21.4184C89.4048 21.4847 90.5987 21.75 91.6732 22.347C91.8722 22.0684 92.0646 21.7898 92.2635 21.5112L92.3166 21.4383L92.4028 21.4781C93.1988 21.8694 94.0013 22.2607 94.8039 22.6454L94.9233 22.7051L94.8437 22.8112C94.585 23.1694 94.3263 23.5342 94.0676 23.8924C94.3595 24.2771 94.6314 24.6684 94.8768 25.0929C95.0161 25.3317 95.1488 25.5705 95.2814 25.8159L95.3345 25.9154L95.2417 25.9685C94.8437 26.1873 94.4524 26.3996 94.061 26.6185L93.9748 26.6649L93.9151 26.5853C93.6432 26.1873 93.3712 25.796 93.0993 25.398ZM73.0484 23.6138C73.0749 23.5873 73.1014 23.5674 73.128 23.5409C74.0168 22.7118 74.879 21.8628 75.7147 20.9806C76.6566 19.9791 77.552 18.9443 78.4077 17.8632C79.9597 15.7938 81.399 13.605 82.3608 11.1906C82.3807 11.1376 82.52 10.8126 82.5266 10.7396C82.4934 10.7263 82.4072 10.7064 82.3807 10.7064C82.2414 10.6799 82.0955 10.66 81.9562 10.6335C81.0342 10.4411 80.1189 10.2554 79.197 10.063C79.0444 10.0365 78.8919 9.99009 78.7327 9.95692C78.7061 9.95029 78.6133 9.93039 78.5867 9.94366C78.5602 9.95692 78.527 10.0299 78.5138 10.0498C78.4607 10.1758 78.4143 10.3151 78.3612 10.4411C76.6035 14.7989 74.8459 19.1566 73.0882 23.5077C73.0749 23.5475 73.0616 23.5807 73.0484 23.6138ZM83.1501 4.2461C82.5531 4.32569 81.7174 5.11499 81.3128 5.52623C81.0939 5.75174 80.8817 5.99052 80.6761 6.23593C80.6296 6.289 80.5832 6.34869 80.5368 6.40175C80.3113 6.68696 80.0857 6.97217 79.8735 7.27065C79.7475 7.4431 79.6215 7.62218 79.5087 7.80127C79.4158 7.94719 79.323 8.09974 79.2434 8.25893C79.2368 8.2722 79.2036 8.35179 79.2102 8.37169C79.2235 8.40485 79.3628 8.43138 79.3893 8.43802C79.4689 8.45792 79.5551 8.47118 79.6347 8.48445C79.7475 8.50434 79.8536 8.52424 79.9664 8.54414C81.0011 8.73649 82.0358 8.94874 83.0705 9.16762C83.1037 9.17426 83.2231 9.20742 83.2628 9.18752C83.2828 9.17426 83.3159 9.11456 83.3292 9.09466C83.3822 8.98854 83.4287 8.87578 83.4817 8.76966C83.5414 8.64363 83.5879 8.51761 83.6343 8.38495C83.7338 8.08648 83.8067 7.78137 83.8731 7.46963C83.9261 7.25075 83.9527 7.0186 83.9726 6.79972C83.9991 6.50125 84.0057 6.19614 83.9991 5.89766C83.9925 5.58592 83.9726 5.26091 83.8996 4.95581C83.8067 4.55784 83.5945 4.2461 83.1501 4.2461ZM85.8098 2.83332C85.7568 2.85985 85.6772 2.91291 85.6705 2.97924C85.6507 3.092 85.7833 3.29761 85.8297 3.39047C86.0354 3.75527 86.2012 4.13998 86.3272 4.53794C86.4798 5.02213 86.5726 5.53286 86.5991 6.04358C86.6257 6.58084 86.5726 7.12473 86.4798 7.65535C86.3935 8.13291 86.2741 8.6171 86.1415 9.08803C86.1017 9.22069 86.0553 9.35997 86.0287 9.49263C86.0155 9.54569 86.0022 9.61865 86.0287 9.67171C86.0553 9.72478 86.1614 9.75131 86.2078 9.76457C86.3139 9.7911 86.4201 9.811 86.5262 9.82427C86.7053 9.8508 86.8843 9.86406 87.0634 9.87733C87.4415 9.91049 87.8196 9.93039 88.1976 9.95029C88.6686 9.97019 89.1329 9.98345 89.5972 9.99672C89.9951 10.01 90.3997 10.0166 90.7977 10.0166C91.8788 10.0233 92.9533 9.99009 94.0279 9.84417C94.9432 9.71814 95.8585 9.51916 96.7473 9.28038C97.4172 9.09466 98.0871 8.88241 98.704 8.56404C99.2213 8.29873 99.7121 7.95382 100.15 7.56249C100.488 7.26401 100.8 6.92574 101.025 6.53441C101.244 6.14971 101.35 5.77827 101.384 5.34051C101.417 4.84968 101.364 4.25937 101.145 3.81497C100.926 3.37057 100.535 3.0721 100.123 2.81342C99.6525 2.51494 99.1815 2.2828 98.6509 2.11698C97.981 1.90473 97.2646 1.77871 96.5682 1.70575C95.7457 1.61289 94.91 1.58636 94.0809 1.58636C93.6299 1.58636 93.1855 1.59299 92.7345 1.61952C92.237 1.64605 91.7462 1.68585 91.2487 1.75217C90.7446 1.81187 90.2405 1.89146 89.7364 1.97769C89.1395 2.07718 88.5425 2.18994 87.9522 2.3027C87.5078 2.38892 87.0568 2.46851 86.6124 2.57464C86.4466 2.61444 86.2874 2.65423 86.1282 2.70066C86.0221 2.73383 85.9093 2.77362 85.8098 2.83332ZM56.3338 26.8705C56.3537 26.8639 56.3669 26.8572 56.3802 26.8506C56.5129 26.7909 56.6521 26.7312 56.7848 26.6649C57.5608 26.32 58.3302 25.9685 59.1063 25.6235C59.8359 25.2189 60.5721 24.821 61.2686 24.3501C61.5869 24.1378 61.892 23.9123 62.1905 23.6669C62.3431 23.5342 62.4824 23.3883 62.6216 23.2357C62.7742 23.0567 62.9334 22.8577 63.0395 22.6521C63.0992 22.5393 63.1788 22.347 63.139 22.2143C63.0063 21.823 62.6482 21.7699 62.2834 21.7832C61.7859 21.8031 61.3216 22.002 60.9038 22.2541C60.6119 22.4332 60.3267 22.6322 60.0548 22.8378C59.7762 23.0368 59.5042 23.249 59.2389 23.4613C58.2241 24.2771 57.3154 25.2322 56.6389 26.3532C56.5526 26.5057 56.4598 26.6516 56.3736 26.8042C56.3669 26.8174 56.347 26.844 56.3338 26.8705ZM62.4625 37.3105C60.8109 37.8146 59.166 38.3187 57.5144 38.8228V38.8294C56.7317 39.035 55.969 39.307 55.2261 39.632C54.5429 39.9305 53.8863 40.282 53.2429 40.6601V40.6667C52.9046 40.8524 52.5663 41.0713 52.2944 41.3499C51.9362 41.6948 51.5781 42.2188 51.6311 42.7427C51.6709 43.1275 51.923 43.4127 52.2347 43.6116C52.3873 43.6912 52.5464 43.7443 52.7123 43.7841C53.1965 43.8836 53.7337 43.8438 54.2179 43.7708C54.4169 43.7377 54.6092 43.6912 54.8082 43.6514C56.6654 43.2336 58.2108 42.358 59.5772 41.0448C60.7114 39.9504 61.6267 38.6437 62.4625 37.3105ZM37.7155 18.0622C38.0273 18.1948 38.5844 18.2479 38.863 18.2744C39.2942 18.3076 39.7253 18.3275 40.163 18.3341C40.7666 18.3474 41.3768 18.3408 41.9871 18.3275C43.0881 18.3076 44.156 18.1484 45.204 17.7836C46.4178 17.3657 47.5055 16.7025 48.4938 15.88C49.9398 14.4672 50.8418 13.0611 51.001 11.0049C51.127 9.4263 50.7423 7.55586 49.5617 6.43492C49.4821 6.35532 49.3892 6.289 49.2765 6.27573C49.0908 6.25583 48.8653 6.40839 48.726 6.51451C48.58 6.62063 48.4341 6.74003 48.2948 6.85942C48.1091 7.0186 47.9234 7.17779 47.731 7.33698C46.305 8.51761 44.9851 9.82427 43.7248 11.1774C42.4447 12.5503 41.2243 13.983 40.0105 15.4091C39.2477 16.2979 38.4916 17.1867 37.7155 18.0622ZM108.799 22.6587C108.6 22.5592 108.368 22.5128 108.149 22.5128C107.479 22.4929 106.743 23.0368 106.259 23.4546C105.927 23.7332 105.609 24.0317 105.304 24.3434C104.945 24.7016 104.601 25.073 104.269 25.4577C103.911 25.8756 103.559 26.3134 103.247 26.7644C103.048 27.0562 102.843 27.3746 102.69 27.6996C103.274 27.4476 103.858 27.1889 104.441 26.9302C105.808 26.3333 108.076 25.3118 108.812 23.9521C108.925 23.7531 108.998 23.5475 109.031 23.322C109.071 23.0301 109.031 22.8378 108.799 22.6587ZM90.7911 23.6072C90.7579 23.5939 90.7181 23.5807 90.6849 23.5674C90.5589 23.521 90.4263 23.4812 90.3002 23.4414C89.8956 23.3419 89.4844 23.2822 89.0732 23.2623C88.2043 23.2424 87.3287 23.3153 86.4996 23.5873C86.1415 23.7067 85.7966 23.8725 85.4716 24.0516C85.1068 24.2572 84.7552 24.4827 84.417 24.7215C83.8134 25.1526 83.2231 25.6434 82.6991 26.1741C82.3343 26.5455 81.9894 26.9302 81.6511 27.3215C80.5036 28.6614 78.7128 30.6777 78.9515 32.5747C78.9781 32.7538 79.0245 32.9395 79.0842 33.112C79.1572 33.2711 79.2699 33.3905 79.4225 33.4768C79.9266 33.762 80.623 33.5762 81.1271 33.3706C81.4985 33.2181 81.8567 33.0257 82.195 32.8267C82.573 32.5946 82.9378 32.3492 83.296 32.0905C83.8465 31.6925 84.3838 31.268 84.9078 30.8303C85.1333 30.6446 85.3522 30.4588 85.5777 30.2731C85.7501 30.1272 85.9226 29.9813 86.1017 29.842C86.5394 29.3711 86.9639 28.8869 87.3685 28.3894C88.3635 27.1955 89.2987 25.9353 90.1477 24.6286C90.3666 24.2904 90.5854 23.9521 90.7911 23.6072Z" fill="#B79F84"/>
</svg>
