<svg width="75" height="26" viewBox="0 0 75 26" fill="none" xmlns="http://www.w3.org/2000/svg">
<path d="M26.96 0.615999L28.4 1.32C26.9707 4.11467 25.488 7.70933 23.952 12.104C24.9333 12.104 25.6053 12.1467 25.968 12.232L25.84 14.056C25.392 14.2053 24.5173 14.28 23.216 14.28C22.768 15.5173 22.5013 16.52 22.416 17.288C22.3307 18.056 22.256 18.8027 22.192 19.528C22.1493 20.2533 22.1173 20.744 22.096 21H20.304C20.1973 20.6373 20.144 20.264 20.144 19.88C20.144 18.5573 20.496 16.6907 21.2 14.28C19.92 14.28 17.9787 14.4293 15.376 14.728C15.2693 15.0693 15.0027 15.7093 14.576 16.648C14.1493 17.5653 13.7227 18.3653 13.296 19.048C12.8907 19.7307 12.336 20.4773 11.632 21.288C10.928 22.0987 10.192 22.7813 9.424 23.336C7.22667 24.9147 5.09333 25.704 3.024 25.704C2.17067 25.704 1.46667 25.4373 0.912 24.904C0.357333 24.3707 0.0799999 23.6987 0.0799999 22.888C0.0799999 20.84 1.25333 18.984 3.6 17.32C5.968 15.6347 9.24267 14.2907 13.424 13.288C15.0027 8.68 17.2213 5.39467 20.08 3.432C16.9867 3.47467 14.4373 3.99733 12.432 5C10.4267 6.00267 9.424 7.28267 9.424 8.84C9.424 9.33067 9.49867 9.75733 9.648 10.12C9.79733 10.4613 10.1493 11.0053 10.704 11.752L9.616 12.776C8.67733 12.1787 7.96267 11.4533 7.472 10.6C6.98133 9.74667 6.736 8.92533 6.736 8.136C6.736 6.81333 7.44 5.59733 8.848 4.488C10.256 3.35733 12.0053 2.49333 14.096 1.896C16.1867 1.27733 18.3093 0.967999 20.464 0.967999C21.552 0.967999 22.2987 1.05333 22.704 1.224C23.1307 1.37333 23.344 1.672 23.344 2.12C23.344 2.54667 23.0347 2.952 22.416 3.336C19.7493 5 17.6053 8.15733 15.984 12.808C17.2427 12.5947 19.1947 12.36 21.84 12.104C22.864 9.11733 23.6853 6.90933 24.304 5.48C24.944 4.02933 25.8293 2.408 26.96 0.615999ZM5.584 23.496C6.37333 23.496 7.29067 23.144 8.336 22.44C9.40267 21.7573 10.288 20.8613 10.992 19.752C11.7173 18.6213 12.336 17.0747 12.848 15.112C10.0107 15.5813 7.71733 16.4133 5.968 17.608C4.24 18.7813 3.376 20.1147 3.376 21.608C3.376 22.2053 3.54667 22.664 3.888 22.984C4.25067 23.3253 4.816 23.496 5.584 23.496ZM44.0555 17.768L44.7915 18.312C44.4928 18.952 43.9382 19.56 43.1275 20.136C42.3382 20.712 41.6128 21 40.9515 21C39.6928 21 39.0635 20.3387 39.0635 19.016C39.0635 18.3973 39.2235 17.6613 39.5435 16.808L38.3595 18.024C37.2075 19.1973 36.2048 19.9867 35.3515 20.392C34.5195 20.7973 33.6982 21 32.8875 21C32.0768 21 31.4582 20.776 31.0315 20.328C30.6262 19.8587 30.4235 19.2187 30.4235 18.408C30.4235 16.9147 30.9995 15.4427 32.1515 13.992C33.3035 12.52 34.7755 11.3253 36.5675 10.408C38.3595 9.49067 40.1515 9.02133 41.9435 9L42.0075 10.056L40.6635 10.344C38.7222 10.7707 37.0048 11.624 35.5115 12.904C34.0395 14.184 33.3035 15.464 33.3035 16.744C33.3035 18.0027 33.8155 18.632 34.8395 18.632C35.7995 18.632 36.9835 17.96 38.3915 16.616C39.7995 15.272 40.9728 13.6933 41.9115 11.88L43.2555 12.68C41.9328 15.3467 41.2715 17.0427 41.2715 17.768C41.2715 18.0667 41.3675 18.3227 41.5595 18.536C41.7728 18.728 41.9755 18.824 42.1675 18.824C42.3808 18.824 42.5195 18.8133 42.5835 18.792C42.6475 18.7707 42.7115 18.7493 42.7755 18.728C42.8395 18.6853 42.9142 18.632 42.9995 18.568C43.1062 18.504 43.1915 18.44 43.2555 18.376C43.3408 18.312 43.4688 18.216 43.6395 18.088C43.8102 17.96 43.9488 17.8533 44.0555 17.768ZM62.1438 17.192C62.1438 17.6187 62.2398 17.9493 62.4318 18.184C62.6451 18.4187 62.8584 18.536 63.0718 18.536C63.2851 18.536 63.4451 18.5253 63.5518 18.504C63.6584 18.4827 63.7651 18.44 63.8718 18.376C63.9784 18.2907 64.0638 18.2267 64.1278 18.184C64.2131 18.1413 64.3091 18.0667 64.4158 17.96C64.5438 17.832 64.6291 17.7467 64.6718 17.704C64.7571 17.576 64.9064 17.4053 65.1198 17.192L65.7918 17.736C65.4078 18.632 64.8211 19.3893 64.0318 20.008C63.2638 20.6267 62.5704 20.936 61.9518 20.936C61.3331 20.936 60.8424 20.712 60.4798 20.264C60.1171 19.816 59.9358 19.2507 59.9358 18.568C59.9358 17.864 60.0531 16.9573 60.2878 15.848C59.2638 17.4693 58.2291 18.7173 57.1838 19.592C56.1598 20.4667 55.2318 20.904 54.3998 20.904C53.2478 20.904 52.6718 20.168 52.6718 18.696C52.6718 18.2267 52.8211 17.288 53.1198 15.88C52.0958 17.48 51.0504 18.728 49.9838 19.624C48.9384 20.4987 47.9998 20.936 47.1678 20.936C46.0158 20.936 45.4398 20.2213 45.4398 18.792C45.4398 17.3627 45.9304 15.4533 46.9118 13.064C47.8931 10.6533 48.6078 9.256 49.0558 8.872L50.5918 9.544C49.8664 10.7173 49.2371 12.072 48.7038 13.608C48.1918 15.1227 47.9358 16.0933 47.9358 16.52C47.9358 16.9253 48.0531 17.288 48.2878 17.608C48.5224 17.9067 48.7784 18.056 49.0558 18.056C49.8451 18.056 51.0611 16.904 52.7038 14.6C54.3678 12.296 55.4878 10.3333 56.0638 8.712L57.9838 9.544C57.5571 10.12 56.9811 11.2827 56.2558 13.032C55.5304 14.76 55.1678 15.8693 55.1678 16.36C55.1678 16.8507 55.3171 17.2347 55.6158 17.512C55.9144 17.7893 56.2131 17.928 56.5118 17.928C57.2798 17.928 58.4104 16.9573 59.9038 15.016C61.4184 13.0533 62.5811 10.9733 63.3918 8.776L65.2798 9.608C65.1518 9.88533 64.7998 10.5893 64.2238 11.72C62.8371 14.344 62.1438 16.168 62.1438 17.192ZM72.9493 7.432C71.7546 7.432 71.1573 6.952 71.1573 5.992C71.1573 5.45867 71.3066 5.01067 71.6053 4.648C71.9039 4.28533 72.2879 4.104 72.7573 4.104C73.2266 4.104 73.6106 4.24267 73.9093 4.52C74.2079 4.79733 74.3573 5.16 74.3573 5.608C74.3573 6.056 74.2293 6.472 73.9733 6.856C73.7173 7.24 73.3759 7.432 72.9493 7.432ZM72.5333 16.872L73.1733 17.416C72.6613 18.3973 71.9786 19.24 71.1253 19.944C70.2933 20.6267 69.5359 20.968 68.8533 20.968C67.6586 20.968 67.0613 20.136 67.0613 18.472C67.0613 16.4027 67.9146 13.704 69.6213 10.376C70.0053 9.65067 70.2293 9.224 70.2933 9.096L71.6693 9.928C71.2213 10.7387 70.6666 12.0293 70.0052 13.8C69.3653 15.5707 69.0453 16.712 69.0453 17.224C69.0453 17.7147 69.1519 18.0667 69.3653 18.28C69.5786 18.4933 69.8346 18.6 70.1333 18.6C70.7093 18.6 71.5093 18.024 72.5333 16.872Z" fill="#B79F84"/>
</svg>
