<svg width="25" height="24" viewBox="0 0 25 24" fill="none" xmlns="http://www.w3.org/2000/svg">
<path fill-rule="evenodd" clip-rule="evenodd" d="M18.6737 0.75C20.35 0.75 21.9625 1.4125 23.1487 2.60125C24.3362 3.7875 25 5.3875 25 7.0625V16.9375C25 20.425 22.1625 23.25 18.6737 23.25H6.325C2.83625 23.25 0 20.425 0 16.9375V7.0625C0 3.575 2.82375 0.75 6.325 0.75H18.6737ZM20.6625 8.92503L20.7625 8.82503C21.0613 8.46253 21.0613 7.93753 20.7488 7.57503C20.575 7.38878 20.3363 7.27503 20.0875 7.25003C19.825 7.23628 19.575 7.32503 19.3863 7.50003L13.75 12C13.025 12.6013 11.9863 12.6013 11.25 12L5.62501 7.50003C5.23626 7.21253 4.69876 7.25003 4.37501 7.58753C4.03751 7.92503 4.00001 8.46253 4.28626 8.83753L4.45001 9.00003L10.1375 13.4375C10.8375 13.9875 11.6863 14.2875 12.575 14.2875C13.4613 14.2875 14.325 13.9875 15.0238 13.4375L20.6625 8.92503Z" fill="#B79F84"/>
</svg>
