<svg width="37" height="37" viewBox="0 0 37 37" fill="none" xmlns="http://www.w3.org/2000/svg">
<path fill-rule="evenodd" clip-rule="evenodd" d="M36.8973 18.4487C36.8973 28.6376 28.6376 36.8973 18.4487 36.8973C8.25975 36.8973 0 28.6376 0 18.4487C0 8.25975 8.25975 0 18.4487 0C28.6376 0 36.8973 8.25975 36.8973 18.4487ZM19.1098 13.6196C17.3154 14.366 13.7291 15.9107 8.35094 18.2539C7.47761 18.6012 7.02012 18.941 6.97847 19.2732C6.90809 19.8346 7.61118 20.0557 8.5686 20.3568C8.69884 20.3977 8.83377 20.4401 8.97211 20.4851C9.91407 20.7913 11.1812 21.1495 11.8399 21.1637C12.4374 21.1766 13.1043 20.9303 13.8406 20.4247C18.8655 17.0327 21.4595 15.3183 21.6223 15.2813C21.7372 15.2552 21.8964 15.2224 22.0043 15.3183C22.1122 15.4142 22.1016 15.5958 22.0901 15.6445C22.0205 15.9414 19.2606 18.5072 17.8324 19.835C17.3871 20.249 17.0713 20.5426 17.0067 20.6097C16.8621 20.7599 16.7147 20.902 16.573 21.0386C15.6979 21.8822 15.0417 22.5148 16.6094 23.5479C17.3627 24.0443 17.9655 24.4548 18.567 24.8644C19.2238 25.3117 19.8789 25.7578 20.7265 26.3134C20.9424 26.455 21.1487 26.602 21.3495 26.7452C22.1139 27.2901 22.8006 27.7797 23.649 27.7016C24.142 27.6563 24.6512 27.1927 24.9098 25.8102C25.521 22.5429 26.7223 15.4638 27 12.5466C27.0243 12.291 26.9937 11.9639 26.9691 11.8203C26.9445 11.6767 26.8932 11.4722 26.7065 11.3207C26.4855 11.1414 26.1443 11.1035 25.9917 11.1062C25.2978 11.1185 24.2332 11.4886 19.1098 13.6196Z" fill="#B79F84"/>
</svg>
