<svg width="27" height="27" viewBox="0 0 27 27" fill="none" xmlns="http://www.w3.org/2000/svg">
<path fill-rule="evenodd" clip-rule="evenodd" d="M26.1047 13.5001C26.1047 20.7087 20.2609 26.5524 13.0523 26.5524C5.84373 26.5524 0 20.7087 0 13.5001C0 6.29149 5.84373 0.447754 13.0523 0.447754C20.2609 0.447754 26.1047 6.29149 26.1047 13.5001ZM13.52 10.0836C12.2505 10.6116 9.71322 11.7046 5.90819 13.3623C5.29032 13.6081 4.96665 13.8484 4.93718 14.0835C4.88739 14.4807 5.38482 14.6371 6.06219 14.8501C6.15433 14.8791 6.2498 14.9091 6.34767 14.9409C7.0141 15.1575 7.91057 15.411 8.37661 15.421C8.79934 15.4302 9.27117 15.2559 9.79208 14.8982C13.3472 12.4984 15.1824 11.2854 15.2976 11.2592C15.3789 11.2408 15.4916 11.2176 15.5679 11.2854C15.6442 11.3533 15.6367 11.4817 15.6286 11.5162C15.5793 11.7263 13.6267 13.5416 12.6162 14.481C12.3012 14.7739 12.0778 14.9816 12.0321 15.029C11.9298 15.1353 11.8255 15.2358 11.7253 15.3325C11.1062 15.9293 10.6419 16.3769 11.751 17.1078C12.284 17.459 12.7105 17.7495 13.136 18.0392C13.6007 18.3557 14.0642 18.6713 14.6638 19.0644C14.8166 19.1646 14.9625 19.2686 15.1046 19.3699C15.6454 19.7554 16.1313 20.1018 16.7315 20.0466C17.0803 20.0145 17.4406 19.6865 17.6235 18.7084C18.0559 16.3968 18.9059 11.3883 19.1023 9.32444C19.1195 9.14362 19.0979 8.9122 19.0805 8.81062C19.0631 8.70903 19.0267 8.56429 18.8947 8.45714C18.7383 8.33025 18.4969 8.30349 18.3889 8.30539C17.898 8.31404 17.1448 8.57594 13.52 10.0836Z" fill="white"/>
</svg>
