<svg width="37" height="30" viewBox="0 0 37 30" fill="none" xmlns="http://www.w3.org/2000/svg">
<path d="M12.2227 29.9486C25.8043 29.9486 33.2349 18.7903 33.2349 9.11678C33.2349 8.80309 33.2279 8.48243 33.2138 8.16874C34.6593 7.13236 35.9067 5.84866 36.8975 4.37796C35.5512 4.97178 34.1219 5.35959 32.6583 5.52816C34.1994 4.61235 35.3533 3.17365 35.9061 1.47877C34.4563 2.33058 32.8708 2.93146 31.2176 3.25565C30.1037 2.08223 28.6309 1.30529 27.027 1.04495C25.423 0.784605 23.7772 1.05536 22.3441 1.81535C20.9109 2.57534 19.7702 3.78223 19.0982 5.24944C18.4263 6.71664 18.2606 8.36244 18.6268 9.93237C15.6912 9.78633 12.8194 9.03029 10.1974 7.71329C7.5755 6.39628 5.262 4.5477 3.40691 2.28739C2.46406 3.89903 2.17555 5.80612 2.60001 7.62107C3.02447 9.43603 4.13005 11.0227 5.69207 12.0585C4.5194 12.0216 3.37242 11.7086 2.3459 11.1453V11.2359C2.34485 12.9272 2.93461 14.5667 4.01493 15.8756C5.09524 17.1846 6.59945 18.0822 8.27184 18.416C7.18554 18.7106 6.04543 18.7536 4.93973 18.5414C5.41164 19.996 6.32982 21.2681 7.56612 22.1804C8.80241 23.0926 10.2951 23.5995 11.836 23.6302C9.2201 25.6674 5.98872 26.7723 2.6623 26.7671C2.07239 26.7662 1.48306 26.7304 0.897461 26.6597C4.27675 28.8091 8.20776 29.9507 12.2227 29.9486Z" fill="#B79F84"/>
</svg>
