<svg width="28" height="19" viewBox="0 0 28 19" fill="none" xmlns="http://www.w3.org/2000/svg">
<path d="M8.59842 19C18.7846 19 24.3576 11.6894 24.3576 5.35156C24.3576 5.14604 24.3523 4.93595 24.3417 4.73043C25.4259 4.05142 26.3614 3.21038 27.1045 2.24682C26.0948 2.63587 25.0228 2.88995 23.9251 3.0004C25.0809 2.40038 25.9463 1.45779 26.3609 0.347345C25.2736 0.905429 24.0845 1.29911 22.8446 1.51151C22.0092 0.74272 20.9046 0.23369 19.7016 0.06312C18.4987 -0.10745 17.2643 0.0699397 16.1895 0.567864C15.1146 1.06579 14.259 1.85651 13.7551 2.81779C13.2511 3.77906 13.1269 4.85734 13.4015 5.88592C11.1998 5.79023 9.04592 5.2949 7.07947 4.43203C5.11302 3.56916 3.3779 2.35803 1.98658 0.877134C1.27944 1.93303 1.06306 3.18251 1.3814 4.37162C1.69975 5.56072 2.52894 6.60024 3.70045 7.27889C2.82095 7.25471 1.96071 7.04963 1.19082 6.6806V6.73997C1.19003 7.84806 1.63235 8.92219 2.44259 9.77977C3.25283 10.6374 4.38098 11.2255 5.63527 11.4441C4.82055 11.6372 3.96547 11.6653 3.13619 11.5263C3.49013 12.4793 4.17876 13.3128 5.10598 13.9105C6.03321 14.5082 7.15275 14.8402 8.30838 14.8603C6.34647 16.195 3.92294 16.919 1.42813 16.9156C0.98569 16.915 0.543691 16.8915 0.104492 16.8452C2.63896 18.2534 5.58721 19.0014 8.59842 19Z" fill="white"/>
</svg>
